<?xml version="1.0" encoding="UTF-8"?>
<svg version="1.1" xmlns="http://www.w3.org/2000/svg" width="3000" height="2000">
<path d="M0 0 C3.34348299 2.91870762 6.56073908 5.9537874 9.72753906 9.0625 C11.0619393 10.36403098 12.42577125 11.6351947 13.79150391 12.90380859 C20.93787768 19.69118086 26.51765562 27.41685761 32.15478516 35.45458984 C30.62767711 39.70185909 27.85666248 41.24547351 24.15478516 43.64208984 C18.84106632 47.17377332 14.08509225 50.98462051 9.41259766 55.34912109 C7.39718191 57.22854858 5.33069495 59.00021081 3.21728516 60.76708984 C-11.60648919 73.77510066 -22.83755894 90.03514905 -31.84521484 107.45458984 C-32.16474121 108.0677002 -32.48426758 108.68081055 -32.81347656 109.3125 C-40.4166689 124.10951258 -45.22100954 140.04858691 -47.84521484 156.45458984 C-48.02955078 157.60185547 -48.21388672 158.74912109 -48.40380859 159.93115234 C-53.35772185 201.50917205 -43.44353838 246.13871004 -17.99755859 279.74755859 C1.81996214 304.67231698 24.46273783 321.09776771 52.15478516 336.45458984 C39.75389536 376.11796786 21.81762481 413.27679593 -1.84521484 447.45458984 C-2.62783691 448.59444336 -2.62783691 448.59444336 -3.42626953 449.75732422 C-11.55708188 461.58993169 -19.92334861 473.20401465 -28.84521484 484.45458984 C-29.29396973 485.02193848 -29.74272461 485.58928711 -30.20507812 486.17382812 C-41.81155136 500.70915979 -54.9077281 514.68139122 -70.84521484 524.45458984 C-71.4347998 524.81875 -72.02438477 525.18291016 -72.63183594 525.55810547 C-93.9463632 538.44409618 -119.47173077 541.88510762 -143.76318359 536.54443359 C-156.92225753 533.15031789 -169.39950525 528.304739 -181.84521484 522.89208984 C-192.96856367 518.0684808 -204.03191879 514.19578206 -215.84521484 511.45458984 C-216.97572266 511.19033203 -218.10623047 510.92607422 -219.27099609 510.65380859 C-237.44454318 507.32689524 -257.91662847 508.04876144 -275.84521484 512.45458984 C-276.92270996 512.71272461 -276.92270996 512.71272461 -278.02197266 512.97607422 C-290.4467811 516.06736222 -302.14868802 520.93549467 -313.94528198 525.82504272 C-343.02406955 537.86017848 -371.84008482 545.41683113 -402.23168945 533.06274414 C-425.96114515 522.76877863 -446.50250521 501.8087373 -461.84521484 481.45458984 C-463.11099154 479.81828264 -464.37805471 478.18297025 -465.64599609 476.54833984 C-472.7266464 467.38224754 -479.56655407 458.18837164 -485.84521484 448.45458984 C-486.7838659 447.05430153 -487.72552445 445.65602667 -488.66943359 444.25927734 C-495.03761819 434.82931002 -501.19696459 425.33443571 -506.84521484 415.45458984 C-507.5094043 414.29660889 -507.5094043 414.29660889 -508.18701172 413.11523438 C-537.74826606 361.2005624 -557.28296426 303.54617841 -565.84521484 244.45458984 C-566.01037598 243.32698242 -566.17553711 242.199375 -566.34570312 241.03759766 C-570.89048096 208.42987418 -571.62063087 172.92651431 -565.84521484 140.45458984 C-565.6736084 139.46281738 -565.50200195 138.47104492 -565.32519531 137.44921875 C-555.23685988 80.78685217 -527.14055664 28.66871425 -479.59130859 -4.83837891 C-457.44038385 -19.61437948 -433.89345313 -29.28906355 -407.84521484 -34.54541016 C-406.63220703 -34.79291016 -405.41919922 -35.04041016 -404.16943359 -35.29541016 C-363.55052718 -42.04180292 -327.45502388 -28.47753589 -290.31005859 -14.00634766 C-266.77581684 -4.88105456 -266.77581684 -4.88105456 -241.93896484 -6.13525391 C-241.20754272 -6.31160873 -240.47612061 -6.48796356 -239.72253418 -6.66966248 C-232.13181596 -8.58896296 -224.90596846 -11.32238363 -217.63632202 -14.20266724 C-213.63062619 -15.78536394 -209.60689943 -17.32090338 -205.58349609 -18.85791016 C-204.76871292 -19.16954605 -203.95392975 -19.48118195 -203.11445618 -19.80226135 C-135.27954174 -45.63262602 -59.042782 -49.44969702 0 0 Z " fill="#000000" transform="translate(914.84521484375,749.54541015625)"/>
<path d="M0 0 C359.52380952 0 359.52380952 0 420 54 C420.73935791 54.65911377 420.73935791 54.65911377 421.49365234 55.33154297 C425.04160047 58.50683049 428.52975155 61.74006964 432 65 C432.95326172 65.87205078 432.95326172 65.87205078 433.92578125 66.76171875 C440.00635056 72.52302189 444.94132225 79.35280288 450 86 C450.71542969 86.93199219 451.43085937 87.86398437 452.16796875 88.82421875 C473.25677835 116.98472498 485.90202266 150.53635632 492 185 C492.16226074 185.85303711 492.32452148 186.70607422 492.49169922 187.58496094 C503.95391272 249.68673686 490.62434196 318.04044413 454.91015625 370.04296875 C448.72970793 378.72007342 442.15718718 387.12338358 434.4765625 394.5234375 C432.840442 396.09766332 432.840442 396.09766332 431.0625 398.5 C428.07829949 402.11721274 424.57642362 404.98147497 421 408 C420.12214844 408.76570313 419.24429687 409.53140625 418.33984375 410.3203125 C410.65079901 416.92274931 402.56871536 422.59839662 394 428 C393.35466309 428.4125 392.70932617 428.825 392.04443359 429.25 C352.01773881 454.64487947 304.22035938 464.22969509 257.35595703 464.11352539 C255.71223389 464.11321825 254.06851061 464.11335392 252.42478752 464.11389065 C248.06639852 464.11411423 243.70803759 464.1083647 239.34965515 464.10128021 C235.24343793 464.09553882 231.13722716 464.09531458 227.03100586 464.09460449 C215.0623336 464.08937997 203.09366643 464.07541871 191.125 464.0625 C164.35375 464.041875 137.5825 464.02125 110 464 C110 543.2 110 622.4 110 704 C73.7 704 37.4 704 0 704 C0 471.68 0 239.36 0 0 Z M110 93 C110 184.74 110 276.48 110 371 C133.47125 371.061875 156.9425 371.12375 181.125 371.1875 C192.17959717 371.22846802 192.17959717 371.22846802 203.45751953 371.27026367 C210.15122777 371.28030628 210.15122777 371.28030628 216.84494019 371.28633118 C219.79154449 371.2890896 222.73798127 371.30018245 225.68453979 371.31672668 C246.7525895 371.4297889 267.77705753 371.2580964 288.1875 365.3125 C289.0842041 365.05758789 289.9809082 364.80267578 290.90478516 364.54003906 C323.77980795 354.84263146 349.99710886 335.7561257 367 305.7890625 C386.77805414 269.33502545 388.12973676 221.08083011 376.68066406 181.84375 C370.5623811 162.45822262 360.86903079 146.73267007 347 132 C346.46117187 131.39671875 345.92234375 130.7934375 345.3671875 130.171875 C320.15928857 103.06388318 278.98601089 95.33240073 244 93 C199.78 93 155.56 93 110 93 Z " fill="#000000" transform="translate(1169,579)"/>
<path d="M0 0 C1.00481918 -0.00701431 2.00963837 -0.01402863 3.04490662 -0.02125549 C6.26696308 -0.03865235 9.48883581 -0.04510703 12.7109375 -0.046875 C14.36148636 -0.04788712 14.36148636 -0.04788712 16.04537964 -0.04891968 C31.93173952 -0.03342051 47.42512854 0.2885684 63.0859375 3.203125 C64.07658203 3.38004883 65.06722656 3.55697266 66.08789062 3.73925781 C106.25293375 11.04773046 143.15283284 25.888026 173.0859375 54.203125 C173.96894531 55.02167969 174.85195312 55.84023438 175.76171875 56.68359375 C204.41594312 84.12193873 218.19397046 122.96715067 219.30960336 162.09209734 C219.50660624 171.22964875 219.46840222 180.36969088 219.43413436 189.50871921 C219.4209866 193.92142529 219.42557647 198.33412123 219.42784119 202.74684143 C219.42940228 210.36338501 219.42011628 217.97985056 219.40312767 225.59637451 C219.37858225 236.60811626 219.37091665 247.61982089 219.3671637 258.63158703 C219.36062337 276.50424989 219.34072841 294.37687131 219.31225586 312.24951172 C219.28465229 329.59488724 219.26344967 346.94025144 219.25073242 364.28564453 C219.24994425 365.35764457 219.24915608 366.42964461 219.24834403 367.5341295 C219.24442847 372.91288393 219.24063745 378.29163843 219.23690832 383.67039299 C219.20588785 428.18134049 219.15062588 472.6922112 219.0859375 517.203125 C185.4259375 517.203125 151.7659375 517.203125 117.0859375 517.203125 C117.0859375 489.483125 117.0859375 461.763125 117.0859375 433.203125 C116.4259375 433.203125 115.7659375 433.203125 115.0859375 433.203125 C114.83972656 433.89148437 114.59351563 434.57984375 114.33984375 435.2890625 C99.32018231 470.19456853 62.29296768 495.46966316 28.34375 509.203125 C-22.56756043 528.98838491 -80.82766241 527.66035864 -131.05078125 506.40234375 C-148.96102297 498.49602083 -163.79241651 487.64081662 -177.9140625 474.203125 C-178.99300781 473.22085938 -178.99300781 473.22085938 -180.09375 472.21875 C-202.74936228 450.92793364 -216.92659463 415.72986257 -218.11889648 384.97167969 C-218.22180305 381.09689748 -218.24042599 377.22413747 -218.22973633 373.34814453 C-218.22658474 370.96990669 -218.2501023 368.59292834 -218.27539062 366.21484375 C-218.38577763 339.59971146 -210.85330994 312.73346505 -194.9140625 291.203125 C-194.00914063 289.96369141 -194.00914063 289.96369141 -193.0859375 288.69921875 C-161.62266227 247.51934381 -108.30987033 230.44927873 -58.84101868 223.73326111 C-36.92837428 220.91613841 -14.9550567 219.59905431 7.09331131 218.32559967 C12.47207539 218.01273941 17.85012124 217.6879558 23.22827148 217.36474609 C34.60230399 216.68353183 45.97726688 216.01905225 57.35267639 215.36127472 C59.93659749 215.21176599 62.52049026 215.06177964 65.10437012 214.91156006 C81.09674926 213.98191901 97.09000153 213.06967427 113.0859375 212.203125 C113.01602616 205.99955568 112.92759214 199.79659574 112.82348633 193.59350586 C112.79065309 191.49233891 112.7624986 189.39109255 112.73950195 187.28979492 C112.43223943 159.93035536 109.81023784 134.25714559 90.2890625 113.3203125 C68.24017747 92.13149036 36.29765149 86.60394365 6.82055664 86.84960938 C-23.02460263 87.64328822 -51.43180735 96.82532166 -72.9140625 118.203125 C-83.98101517 130.02141208 -88.7321411 142.52091976 -92.9140625 158.203125 C-125.9140625 158.203125 -158.9140625 158.203125 -192.9140625 158.203125 C-191.74407286 139.48329083 -191.74407286 139.48329083 -190.2265625 132.765625 C-190.05286133 131.97760498 -189.87916016 131.18958496 -189.70019531 130.37768555 C-180.41231675 90.15569845 -154.23253689 56.62525675 -119.68481445 34.66650391 C-83.96954742 12.64859343 -42.04481985 0.19751886 0 0 Z M92.18969727 287.7980957 C90.62859222 287.89327988 90.62859222 287.89327988 89.03594971 287.99038696 C85.61620021 288.19990655 82.1967654 288.41410668 78.77734375 288.62890625 C76.3676759 288.77874483 73.95800275 288.92849814 71.54832458 289.07817078 C66.49553311 289.39288294 61.44291249 289.71019755 56.39038086 290.02905273 C49.99504348 290.43222609 43.59920017 290.82663479 37.20317173 291.21867085 C32.21863877 291.52563106 27.23449875 291.8386522 22.2504406 292.15321922 C19.89767412 292.30079415 17.54477845 292.44632708 15.19174385 292.58956337 C2.64002275 293.35616943 -9.86840602 294.31492211 -22.37133789 295.67260742 C-24.00786017 295.84745273 -24.00786017 295.84745273 -25.6774435 296.02583027 C-41.43618486 297.81464205 -56.50515983 301.53386148 -70.9140625 308.203125 C-72.03167969 308.71488281 -73.14929687 309.22664063 -74.30078125 309.75390625 C-89.63143322 317.35573249 -102.0137925 330.01520473 -107.9140625 346.203125 C-113.74247324 363.92242994 -112.07133243 382.32984563 -103.7890625 398.953125 C-93.61322671 416.6143837 -76.05990815 427.98849067 -56.69897461 433.44091797 C-43.51094971 436.92797551 -30.43939413 438.58043699 -16.7890625 438.515625 C-15.52715088 438.50998535 -14.26523926 438.5043457 -12.96508789 438.49853516 C23.73383682 438.02674856 56.93244997 425.2837181 83.6484375 400.015625 C95.47233782 387.81167074 104.06322679 372.81281947 108.9609375 356.578125 C109.15212158 355.94672607 109.34330566 355.31532715 109.5402832 354.66479492 C113.64307786 339.87946275 113.33241924 325.02938691 113.2109375 309.828125 C113.20088504 307.62760825 113.19176321 305.42708705 113.18359375 303.2265625 C113.1617659 297.88531449 113.12762657 292.54425052 113.0859375 287.203125 C106.09391494 287.12207349 99.16691829 287.35642435 92.18969727 287.7980957 Z " fill="#000000" transform="translate(1908.9140625,765.796875)"/>
<path d="M0 0 C37.95 0 75.9 0 115 0 C116.74799491 4.66131975 118.43185519 9.1821281 119.90673828 13.91040039 C120.252771 15.01591751 120.59880371 16.12143463 120.95532227 17.26045227 C121.50724243 19.03611824 121.50724243 19.03611824 122.0703125 20.84765625 C122.46323486 22.10559494 122.85615723 23.36353363 123.26098633 24.65959167 C124.32872817 28.07851577 125.39350804 31.4983555 126.45761871 34.91841125 C127.35932272 37.81530609 128.26268539 40.71168268 129.16599846 43.6080761 C136.61679299 67.49997773 144.01460495 91.40818986 151.39408875 115.32220459 C156.45481054 131.71857282 161.53144673 148.11001921 166.60615158 164.50206375 C167.99476732 168.98759469 169.38324292 173.47316901 170.77172852 177.95874023 C174.18101863 188.97253488 177.59049717 199.9862712 181 211 C189.44064004 238.26582874 197.88087759 265.53178187 206.31871796 292.79847717 C206.96899097 294.89979615 207.61928795 297.00110771 208.26959229 299.10241699 C220.2213081 337.72217299 232.11975461 376.35821089 244 415 C246.32815041 408.95876393 248.37083368 402.86792482 250.30859375 396.69140625 C250.62677063 395.68263428 250.94494751 394.6738623 251.27276611 393.63452148 C252.33028048 390.27799387 253.38411159 386.9203246 254.4375 383.5625 C254.80759186 382.38509247 255.17768372 381.20768494 255.55899048 379.99459839 C262.53412621 357.79970502 269.38760832 335.56800447 276.21606445 313.32763672 C277.07237392 310.53872025 277.92873597 307.74981994 278.78515625 304.9609375 C278.99874094 304.26538631 279.21232563 303.56983513 279.43238258 302.85320663 C284.46833036 286.45587823 289.54430018 270.07100704 294.625 253.6875 C295.08129554 252.21594452 295.53758417 250.74438689 295.99386597 249.27282715 C296.91921537 246.28848983 297.84457198 243.30415476 298.76994324 240.31982422 C299.00196127 239.57156372 299.2339793 238.82330322 299.47302818 238.05236816 C299.94518302 236.52969931 300.41735232 235.00703494 300.8895359 233.484375 C307.66907836 211.62216318 314.43515375 189.75578259 321.20182896 167.88958549 C322.29798406 164.34741549 323.39415436 160.80525019 324.49033546 157.26308823 C325.04143603 155.48227981 325.59253135 153.70146977 326.14362144 151.92065811 C330.10618715 139.11608209 334.07127755 126.31229004 338.03793716 113.5089817 C339.75817743 107.95619093 341.47798149 102.40326504 343.1977787 96.85033703 C344.7682704 91.77965619 346.33925324 86.7091282 347.91114044 81.63887978 C356.33821897 54.44516241 364.66645372 27.22291783 373 0 C409.96 0 446.92 0 485 0 C484.33048078 4.0171153 483.75759373 7.08219931 482.44384766 10.79711914 C482.12407455 11.7088942 481.80430145 12.62066925 481.47483826 13.56007385 C481.12478226 14.54185104 480.77472626 15.52362823 480.4140625 16.53515625 C479.86172691 18.10238686 479.86172691 18.10238686 479.29823303 19.70127869 C478.07878507 23.15679582 476.85201806 26.60966438 475.625 30.0625 C474.76117181 32.5044502 473.89765138 34.94650929 473.03442383 37.38867188 C466.52342975 55.78878842 459.94168791 74.16362542 453.34033203 92.53149414 C447.18174866 109.67176867 441.08233935 126.83257543 435 144 C427.82322327 164.25531185 420.60795261 184.4962231 413.34326172 204.72021484 C406.85087545 222.79775184 400.41520061 240.8949773 394 259 C387.20385911 278.18011497 380.37903338 297.34940905 373.5 316.5 C366.53873441 335.88011769 359.63006735 355.27845007 352.75 374.6875 C352.27557583 376.02581861 351.80114956 377.36413649 351.32672119 378.70245361 C351.09309309 379.36149815 350.85946499 380.02054268 350.61875725 380.69955826 C349.4620478 383.96248854 348.30527864 387.22539765 347.1484375 390.48828125 C346.81148802 391.43867279 346.81148802 391.43867279 346.46773148 392.40826416 C340.9767582 407.89475276 335.45151178 423.3688985 329.91731262 438.83998108 C326.94637725 447.14657914 323.98250132 455.45569195 321.01855469 463.76478577 C317.61554067 473.30348621 314.20641032 482.83999202 310.79541016 492.37583923 C308.30161021 499.35014851 305.81658364 506.32750371 303.33834839 513.30735779 C286.78859443 559.89513306 286.78859443 559.89513306 277 582 C276.61086426 582.88445801 276.22172852 583.76891602 275.82080078 584.68017578 C255.85755419 629.62121556 225.57208368 670.57190448 178.83935547 689.5390625 C162.51607897 695.79381023 145.33537137 699.15483998 128 701 C127.17290527 701.09498779 126.34581055 701.18997559 125.49365234 701.2878418 C116.00505702 702.24178905 106.49365174 702.18608887 96.96728516 702.18530273 C94.03402872 702.1874748 91.1011583 702.20564585 88.16796875 702.22460938 C86.23698041 702.22754757 84.30599034 702.22952951 82.375 702.23046875 C81.53155029 702.23765427 80.68810059 702.24483978 79.8190918 702.25224304 C70.0626681 702.21736769 60.85858015 700.98585802 51 700 C51 671.62 51 643.24 51 614 C56.28 614.33 61.56 614.66 67 615 C97.09181485 615.84037292 124.71716944 614.40641823 148 593 C164.15808008 575.68352815 171.30144908 553.62087267 178.5625 531.625 C178.84033325 530.79387695 179.1181665 529.96275391 179.40441895 529.10644531 C180.20083059 526.71307656 180.97997183 524.31478112 181.75390625 521.9140625 C181.99615433 521.19078766 182.2384024 520.46751282 182.48799133 519.72232056 C184.82574461 512.32496094 182.51011485 507.3048703 180 500.3203125 C179.69303192 499.45779877 179.38606384 498.59528503 179.0697937 497.70663452 C178.05006597 494.84481389 177.02515067 491.98488212 176 489.125 C175.27341987 487.09055921 174.54702352 485.05605277 173.82080078 483.02148438 C167.10567773 464.22706393 160.31133316 445.4612867 153.51092529 426.69760132 C149.13356903 414.61524441 144.77666482 402.52551206 140.41885376 390.43609619 C133.35116732 370.8289857 126.2784079 351.22372732 119.1875 331.625 C118.84407562 330.67578674 118.50065125 329.72657349 118.14682007 328.74859619 C115.76497168 322.16557698 113.38256025 315.5827616 111 309 C108.27042744 301.45848017 105.54113663 293.91685852 102.8125 286.375 C102.46947845 285.42691467 102.12645691 284.47882935 101.77304077 283.50201416 C95.02728045 264.8553344 88.30047245 246.20183132 81.57510376 227.54779053 C75.22234281 209.9274393 68.86092595 192.31025356 62.48574829 174.69799805 C58.2363081 162.95782737 53.99421575 151.21504047 49.76171875 139.46875 C49.30351452 138.19717846 48.84530833 136.92560762 48.38710022 135.65403748 C48.15844363 135.01948922 47.92978704 134.38494097 47.69420147 133.73116398 C39.30674379 110.45508363 30.8990198 87.18679357 22.4375 63.9375 C21.60861439 61.65927132 20.77975655 59.38103254 19.95092773 57.1027832 C15.41388551 44.63184419 15.41388551 44.63184419 10.87353516 32.16210938 C9.28183583 27.79183995 7.69321741 23.42046375 6.10720825 19.04812622 C5.54235002 17.49258922 4.97635752 15.93746357 4.40914917 14.38278198 C3.65004616 12.30181005 2.89481065 10.21947685 2.140625 8.13671875 C1.72329102 6.98905029 1.30595703 5.84138184 0.87597656 4.65893555 C0 2 0 2 0 0 Z " fill="#000000" transform="translate(2169,772)"/>
<path d="M0 0 C6.21095746 39.59485382 -9.73204035 82.72908594 -32.7097168 114.41137695 C-36.82112878 119.91774433 -41.19973685 125.07892486 -46 130 C-46.92193746 130.97259705 -47.84380886 131.94525672 -48.765625 132.91796875 C-71.14674783 156.22344049 -104.13360856 175.560596 -137 177 C-142.66695868 177.09506041 -148.3328566 177.05855831 -154 177 C-162.2696703 152.19098911 -149.38447071 117.03029475 -138.5234375 94.88671875 C-117.56388317 53.20454746 -82.37627736 21.82918287 -38.0625 6.6875 C-31.61271122 4.58452563 -25.07872433 2.99698021 -18.4375 1.625 C-17.62869385 1.45701904 -16.8198877 1.28903809 -15.98657227 1.1159668 C-10.57881033 0.08286046 -5.50419148 -0.14296601 0 0 Z " fill="#000000" transform="translate(808,526)"/>
</svg>
