<?xml version="1.0" encoding="UTF-8"?>
<svg version="1.1" xmlns="http://www.w3.org/2000/svg" width="348" height="173">
<path d="M0 0 C114.84 0 229.68 0 348 0 C348 57.09 348 114.18 348 173 C233.16 173 118.32 173 0 173 C0 115.91 0 58.82 0 0 Z " fill="#F6F6F5" transform="translate(0,0)"/>
<path d="M0 0 C44.55 0 89.1 0 135 0 C135.33 4.29 135.66 8.58 136 13 C135.00742188 13.20753906 134.01484375 13.41507813 132.9921875 13.62890625 C116.53134802 17.27077517 101.34646907 23.97496502 91.6171875 38.36328125 C82.85664404 52.35739613 79.69259196 66.93386651 83.13354492 83.19165039 C86.83461165 98.69274008 95.16945408 110.6942462 108.4921875 119.52734375 C112.21170485 121.71154631 116.00082322 123.38742872 120 125 C120 128.3 120 131.6 120 135 C110.1 135 100.2 135 90 135 C90 142.26 90 149.52 90 157 C91.32 157 92.64 157 94 157 C93.98839844 156.21753906 93.97679688 155.43507812 93.96484375 154.62890625 C93.95582031 153.61699219 93.94679688 152.60507813 93.9375 151.5625 C93.92589844 150.55316406 93.91429688 149.54382813 93.90234375 148.50390625 C94 146 94 146 95 145 C96.66617115 144.95936168 98.33388095 144.957279 100 145 C101.26237731 147.52475462 101.09856404 149.31200466 101.0625 152.125 C101.05347656 153.03507813 101.04445313 153.94515625 101.03515625 154.8828125 C101.02355469 155.58148438 101.01195313 156.28015625 101 157 C101.99 157 102.98 157 104 157 C103.97679688 156.30132812 103.95359375 155.60265625 103.9296875 154.8828125 C103.91164063 153.97273437 103.89359375 153.06265625 103.875 152.125 C103.85179688 151.22007812 103.82859375 150.31515625 103.8046875 149.3828125 C104 147 104 147 106 145 C107.65 145.33 109.3 145.66 111 146 C111 149.96 111 153.92 111 158 C112.65 158 114.3 158 116 158 C116 156.35 116 154.7 116 153 C118.49361571 154.20381448 120.68143083 155.45428722 123 157 C126.63939932 156.68269476 126.63939932 156.68269476 130 156 C130 156.66 130 157.32 130 158 C131.32 158 132.64 158 134 158 C134 155.36 134 152.72 134 150 C134.33 150 134.66 150 135 150 C135 154.95 135 159.9 135 165 C139.95 165 144.9 165 150 165 C149.67 162.69 149.34 160.38 149 158 C148.67 158.33 148.34 158.66 148 159 C146.48071962 159.07179964 144.95832518 159.08392007 143.4375 159.0625 C142.61121094 159.05347656 141.78492188 159.04445312 140.93359375 159.03515625 C140.29550781 159.02355469 139.65742188 159.01195312 139 159 C139 158.67 139 158.34 139 158 C143.455 157.01 143.455 157.01 148 156 C148.67958603 153.60280568 148.67958603 153.60280568 149 151 C146.4345406 148.4345406 144.52313332 148.45953913 141 148 C141 147.01 141 146.02 141 145 C145.95 145 150.9 145 156 145 C156.22786458 147.83203125 156.45572917 150.6640625 156.68359375 153.49609375 C156.73211468 155.93640779 156.73211468 155.93640779 158 157 C160.67058851 157.14115161 163.32432238 157.04247107 166 157 C165.67 159.64 165.34 162.28 165 165 C169.95 165 174.9 165 180 165 C179.67 163.02 179.34 161.04 179 159 C176.36 159 173.72 159 171 159 C171 158.67 171 158.34 171 158 C175.455 157.01 175.455 157.01 180 156 C179.67 155.34 179.34 154.68 179 154 C178.67 154.33 178.34 154.66 178 155 C176.33382885 155.04063832 174.66611905 155.042721 173 155 C172.34 153.68 171.68 152.36 171 151 C174.63 151 178.26 151 182 151 C180.73025028 146.58477891 180.73025028 146.58477891 178 143 C173.34022625 142.50657172 173.34022625 142.50657172 169.125 144.1875 C167.73770965 146.4225789 167.35012787 148.40905378 167 151 C166.34 150.67 165.68 150.34 165 150 C165 147.36 165 144.72 165 142 C163.02 142 161.04 142 159 142 C159.33 141.01 159.66 140.02 160 139 C161.65 139.66 163.3 140.32 165 141 C165 139.02 165 137.04 165 135 C169.95 135 174.9 135 180 135 C180.1953125 137.01822917 180.390625 139.03645833 180.5859375 141.0546875 C180.86374749 143.22668245 180.86374749 143.22668245 183 145 C183.66 144.01 184.32 143.02 185 142 C185 146.95 185 151.9 185 157 C186.32 157 187.64 157 189 157 C189 153.37 189 149.74 189 146 C191.475 145.01 191.475 145.01 194 144 C194.33 141.03 194.66 138.06 195 135 C199.95 135 204.9 135 210 135 C210 137.64 210 140.28 210 143 C209.31292969 142.94199219 208.62585938 142.88398438 207.91796875 142.82421875 C205.21087772 142.68867056 202.69066418 142.66258552 200 143 C197.57649126 144.92802102 197.57649126 144.92802102 197 148 C196.9048346 151.66974518 196.9048346 151.66974518 198 155 C200.99459327 157.55094982 204.20536415 157.17248345 208 157 C208.99 154.03 208.99 154.03 210 151 C212 153 214 155 216 157 C217.91424457 156.8981629 217.91424457 156.8981629 220.0625 156.5625 C221.361875 156.376875 222.66125 156.19125 224 156 C224 156.66 224 157.32 224 158 C224.99 158.33 225.98 158.66 227 159 C226.34 159 225.68 159 225 159 C225 160.98 225 162.96 225 165 C229.95 165 234.9 165 240 165 C239.92110571 160.1983779 239.92110571 160.1983779 239.81982422 155.3972168 C239.78900527 151.68552129 239.89022442 150.16466336 242 147 C242.268125 148.093125 242.53625 149.18625 242.8125 150.3125 C244.00665826 154.39669434 244.00665826 154.39669434 247 157 C250.12414314 157.31241431 251.99825776 157.00058075 255 156 C255 156.66 255 157.32 255 158 C255.99 158.33 256.98 158.66 258 159 C257.01 159 256.02 159 255 159 C255 160.98 255 162.96 255 165 C259.95 165 264.9 165 270 165 C270 160.05 270 155.1 270 150 C274.95 150 279.9 150 285 150 C285 154.95 285 159.9 285 165 C289.95 165 294.9 165 300 165 C300 160.05 300 155.1 300 150 C304.95 150 309.9 150 315 150 C315 154.95 315 159.9 315 165 C319.95 165 324.9 165 330 165 C330 160.05 330 155.1 330 150 C334.95 150 339.9 150 345 150 C345 145.05 345 140.1 345 135 C340.05 135 335.1 135 330 135 C330 130.05 330 125.1 330 120 C334.95 120 339.9 120 345 120 C345 115.05 345 110.1 345 105 C340.05 105 335.1 105 330 105 C330 100.05 330 95.1 330 90 C334.95 90 339.9 90 345 90 C345 85.05 345 80.1 345 75 C340.05 75 335.1 75 330 75 C330 70.05 330 65.1 330 60 C334.95 60 339.9 60 345 60 C345 55.05 345 50.1 345 45 C340.05 45 335.1 45 330 45 C330 40.05 330 35.1 330 30 C334.95 30 339.9 30 345 30 C345 25.05 345 20.1 345 15 C340.05 15 335.1 15 330 15 C330 10.05 330 5.1 330 0 C335.94 0 341.88 0 348 0 C348 57.09 348 114.18 348 173 C233.16 173 118.32 173 0 173 C0 115.91 0 58.82 0 0 Z " fill="#FCFBFB" transform="translate(0,0)"/>
<path d="M0 0 C2.90606087 1.41577325 4.9839681 2.39915983 8.19921875 2.55859375 C10.50165904 1.51867284 10.50165904 1.51867284 12.69921875 -0.12890625 C25.85347819 -8.3912449 40.93054796 -9.39064408 56.015625 -6.78125 C71.61887883 -2.44388341 84.45283398 7.45773462 92.69921875 21.37109375 C99.92542901 34.42437416 101.10539225 50.20545927 98.0859375 64.703125 C93.07200045 80.84932758 83.13005562 92.21809581 68.89453125 100.9765625 C67.02340358 101.95721375 65.15500946 102.76222246 63.19921875 103.55859375 C62.24354004 103.95353027 62.24354004 103.95353027 61.26855469 104.35644531 C55.0122849 106.69778469 49.33442787 106.98008207 42.69921875 106.87109375 C41.71824219 106.87431641 40.73726563 106.87753906 39.7265625 106.88085938 C31.60120702 106.82135278 24.16285714 105.94374584 16.88671875 102.12109375 C15.68595703 101.50427734 15.68595703 101.50427734 14.4609375 100.875 C12.19921875 99.55859375 12.19921875 99.55859375 10.21875 97.8359375 C8.26946151 96.33462489 8.26946151 96.33462489 5.875 96.65625 C2.53198209 97.78360348 -0.51415851 99.33306723 -3.61328125 100.99609375 C-16.62743679 107.91482905 -32.63641413 109.0092415 -46.86328125 104.99609375 C-62.74647093 99.1065906 -74.72278072 88.82507161 -81.98730469 73.46337891 C-88.13521821 59.06781429 -88.82555679 43.82773995 -83.34375 29.1328125 C-76.40470313 13.05881786 -65.73244272 1.98858031 -49.48828125 -4.81640625 C-33.31175636 -11.13321563 -14.75145205 -7.94563095 0 0 Z " fill="#F79E1A" transform="translate(167.80078125,21.44140625)"/>
<path d="M0 0 C1.91015625 2.2265625 1.91015625 2.2265625 3 4 C2.50371094 4.37769531 2.00742188 4.75539063 1.49609375 5.14453125 C-9.32259776 13.91034012 -16.46902228 27.14559671 -18 41 C-19.0238662 57.47167209 -15.19556666 71.89800483 -5 85 C-2.43367496 87.7794134 0.23225081 90.4219189 3 93 C-0.4291641 95.89629582 -3.80058303 98.11641247 -7.8125 100.125 C-8.78832031 100.62257813 -9.76414062 101.12015625 -10.76953125 101.6328125 C-23.50215339 107.02146758 -40.16546648 107.10733026 -53.0859375 102.31640625 C-68.21531322 95.48182231 -79.42571939 85.39391877 -86 70 C-91.80897638 54.44831761 -91.59103843 39.26784851 -85 24 C-77.69360543 8.71640045 -66.08235105 -1.144413 -50.38671875 -7.2734375 C-33.46633114 -12.42432473 -14.7827439 -9.11186035 0 0 Z " fill="#EB001A" transform="translate(171,23)"/>
<path d="M0 0 C1.86433226 0.91877294 3.69775706 1.90222281 5.5 2.9375 C17.77443156 9.95392366 33.35081905 11.38776725 47.25830078 8.53710938 C51.03209732 7.41519522 54.50322589 5.78627779 58 4 C60.475 3.01 60.475 3.01 63 2 C63 6.95 63 11.9 63 17 C67.80144925 16.96055481 67.80144925 16.96055481 72.6027832 16.90991211 C75.6839493 16.89712034 78.05605196 17.01868399 81 18 C81 24.93 81 31.86 81 39 C79.35 39 77.7 39 76 39 C75.67 39.33 75.34 39.66 75 40 C72.75 40.4375 72.75 40.4375 70 40 C67.57626331 37.46609346 65.57178795 35.1435759 64 32 C63.67 36.95 63.34 41.9 63 47 C58.05 47 53.1 47 48 47 C48 45.02 48 43.04 48 41 C47.34 40.34 46.68 39.68 46 39 C44.9275 39.226875 43.855 39.45375 42.75 39.6875 C39 40 39 40 37.20703125 38.9609375 C35.73973142 37.71320985 34.36194587 36.36194587 33 35 C32.34 36.65 31.68 38.3 31 40 C27.67919334 40.23168419 25.31918019 40.12057918 22.1875 38.9375 C20 37 20 37 19 33.625 C19 29.36810278 19.99195523 27.00804477 23 24 C30.52238806 23.76119403 30.52238806 23.76119403 33 25 C33 22.36 33 19.72 33 17 C28.05 17 23.1 17 18 17 C18 19.97 18 22.94 18 26 C16.35 26.66 14.7 27.32 13 28 C12.67 31.63 12.34 35.26 12 39 C10.68 39 9.36 39 8 39 C7.505 35.535 7.505 35.535 7 32 C6.67 32 6.34 32 6 32 C5.690625 31.030625 5.38125 30.06125 5.0625 29.0625 C4.30476658 26.15934208 4.30476658 26.15934208 3 25 C2.85884839 22.32941149 2.95752893 19.67567762 3 17 C-1.95 17 -6.9 17 -12 17 C-12 18.98 -12 20.96 -12 23 C-13.65 22.67 -15.3 22.34 -17 22 C-17.33 22.66 -17.66 23.32 -18 24 C-16.02 24 -14.04 24 -12 24 C-11.505 27.96 -11.505 27.96 -11 32 C-10.731875 31.236875 -10.46375 30.47375 -10.1875 29.6875 C-8.35665914 25.54401806 -8.35665914 25.54401806 -6 24 C-2.0324729 23.495042 0.10654682 23.38145549 3.4375 25.6875 C5 28 5 28 5 33 C1.37 33 -2.26 33 -6 33 C-5.34 33.99 -4.68 34.98 -4 36 C-1.19438238 36.28056176 0.46578263 36.26710868 3 35 C3.33 35.99 3.66 36.98 4 38 C2.02 38.99 2.02 38.99 0 40 C0.99 40 1.98 40 3 40 C3 42.31 3 44.62 3 47 C-1.95 47 -6.9 47 -12 47 C-12 44.69 -12 42.38 -12 40 C-13.11375 40.04125 -14.2275 40.0825 -15.375 40.125 C-19 40 -19 40 -21 38 C-21.1953125 35.3984375 -21.1953125 35.3984375 -21.125 32.375 C-21.10695313 31.37210938 -21.08890625 30.36921875 -21.0703125 29.3359375 C-21.04710937 28.56507813 -21.02390625 27.79421875 -21 27 C-21.87011719 27.12568359 -21.87011719 27.12568359 -22.7578125 27.25390625 C-27.42315303 27.86209421 -31.35442117 28.07205665 -36 27 C-36 27.99 -36 28.98 -36 30 C-35.071875 29.938125 -34.14375 29.87625 -33.1875 29.8125 C-30 30 -30 30 -28.0625 31.1875 C-27 33 -27 33 -27.125 35.5625 C-28 38 -28 38 -31 40 C-29.02 39.505 -29.02 39.505 -27 39 C-27 41.64 -27 44.28 -27 47 C-31.95 47 -36.9 47 -42 47 C-42.495 43.535 -42.495 43.535 -43 40 C-46.03642862 39.19623948 -47.79263096 38.94590373 -50.875 39.75 C-55.00811727 40.08064938 -56.5326237 38.62884654 -59.6796875 36.12890625 C-60.11539063 35.75636719 -60.55109375 35.38382813 -61 35 C-61 36.65 -61 38.3 -61 40 C-62.65 40 -64.3 40 -66 40 C-66.33 36.04 -66.66 32.08 -67 28 C-68.65 28.33 -70.3 28.66 -72 29 C-72.33 32.3 -72.66 35.6 -73 39 C-73.99 39 -74.98 39 -76 39 C-76.33 35.04 -76.66 31.08 -77 27 C-78.65 27.33 -80.3 27.66 -82 28 C-82.33 31.63 -82.66 35.26 -83 39 C-84.32 39 -85.64 39 -87 39 C-87 31.74 -87 24.48 -87 17 C-77.1 17 -67.2 17 -57 17 C-57 14.03 -57 11.06 -57 8 C-55.33517578 8.23783203 -55.33517578 8.23783203 -53.63671875 8.48046875 C-37.04357219 10.53409406 -21.26208832 10.00555218 -7.21875 0.07421875 C-4.29616332 -1.340766 -3.05504672 -1.01524419 0 0 Z " fill="#F3F2F2" transform="translate(177,118)"/>
<path d="M0 0 C11.92304114 9.48976744 19.54250099 21.87863225 22 37 C22.9492911 52.48074718 20.63063096 67.42584081 10.71484375 79.8671875 C8.53476497 82.31312954 6.31207477 84.67911732 4 87 C3.41605469 87.58652344 2.83210938 88.17304687 2.23046875 88.77734375 C1.82441406 89.18082031 1.41835937 89.58429688 1 90 C-8.26206882 85.81386846 -14.35989688 76.18276778 -18.25 67.125 C-23.71284516 52.35255621 -23.52921904 37.03460141 -17.55859375 22.48828125 C-13.42021917 13.60661886 -8.27835961 5.51890641 0 0 Z " fill="#FF5F00" transform="translate(174,26)"/>
<path d="M0 0 C0 4.95 0 9.9 0 15 C4.80144925 14.96055481 4.80144925 14.96055481 9.6027832 14.90991211 C12.6839493 14.89712034 15.05605196 15.01868399 18 16 C18 22.93 18 29.86 18 37 C16.35 37 14.7 37 13 37 C12.67 37.33 12.34 37.66 12 38 C9.75 38.4375 9.75 38.4375 7 38 C4.57626331 35.46609346 2.57178795 33.1435759 1 30 C0.67 34.95 0.34 39.9 0 45 C-4.95 45 -9.9 45 -15 45 C-15 43.02 -15 41.04 -15 39 C-15.66 38.34 -16.32 37.68 -17 37 C-18.0725 37.226875 -19.145 37.45375 -20.25 37.6875 C-24 38 -24 38 -25.79296875 36.9609375 C-27.26026858 35.71320985 -28.63805413 34.36194587 -30 33 C-30.99 35.475 -30.99 35.475 -32 38 C-35.32080666 38.23168419 -37.68081981 38.12057918 -40.8125 36.9375 C-43 35 -43 35 -44 31.625 C-44 27.36810278 -43.00804477 25.00804477 -40 22 C-32.47761194 21.76119403 -32.47761194 21.76119403 -30 23 C-30 20.36 -30 17.72 -30 15 C-34.95 15 -39.9 15 -45 15 C-45 17.97 -45 20.94 -45 24 C-46.65 24.66 -48.3 25.32 -50 26 C-50.33 29.63 -50.66 33.26 -51 37 C-52.32 37 -53.64 37 -55 37 C-55.33 34.69 -55.66 32.38 -56 30 C-56.33 30 -56.66 30 -57 30 C-57.309375 29.030625 -57.61875 28.06125 -57.9375 27.0625 C-58.69523342 24.15934208 -58.69523342 24.15934208 -60 23 C-60.08700342 21.36527118 -60.10701063 19.72685945 -60.09765625 18.08984375 C-60.09443359 17.10048828 -60.09121094 16.11113281 -60.08789062 15.09179688 C-60.07951172 14.05087891 -60.07113281 13.00996094 -60.0625 11.9375 C-60.05798828 10.89271484 -60.05347656 9.84792969 -60.04882812 8.77148438 C-60.03699913 6.1809334 -60.02051689 3.59049441 -60 1 C-55.25341797 2.89794922 -55.25341797 2.89794922 -52.97265625 3.81640625 C-52.02712891 4.18572266 -52.02712891 4.18572266 -51.0625 4.5625 C-50.12083984 4.93568359 -50.12083984 4.93568359 -49.16015625 5.31640625 C-36.39851996 9.35489875 -19.53898124 8.89490065 -7.42578125 3.2890625 C-6.22501953 2.65097656 -6.22501953 2.65097656 -5 2 C-1.10067114 0 -1.10067114 0 0 0 Z " fill="#EFEDEC" transform="translate(240,120)"/>
<path d="M0 0 C9.9 0 19.8 0 30 0 C30.33 1.98 30.66 3.96 31 6 C34.96 6.33 38.92 6.66 43 7 C43 11.95 43 16.9 43 22 C34.20295983 23.56659619 34.20295983 23.56659619 30.77734375 21.953125 C28.875 20.5625 28.875 20.5625 26 18 C26 19.65 26 21.3 26 23 C24.35 23 22.7 23 21 23 C20.67 19.04 20.34 15.08 20 11 C18.35 11.33 16.7 11.66 15 12 C14.67 15.3 14.34 18.6 14 22 C13.01 22 12.02 22 11 22 C10.67 18.04 10.34 14.08 10 10 C8.35 10.33 6.7 10.66 5 11 C4.67 14.63 4.34 18.26 4 22 C2.68 22 1.36 22 0 22 C0 14.74 0 7.48 0 0 Z " fill="#FAFAFA" transform="translate(90,135)"/>
<path d="M0 0 C1.2375 -0.103125 2.475 -0.20625 3.75 -0.3125 C4.79414062 -0.39951172 4.79414062 -0.39951172 5.859375 -0.48828125 C9.17182092 0.26729492 10.12818408 2.25088853 12 5 C13.09098513 6.90059696 14.15264346 8.8182678 15.1875 10.75 C22.1097007 22.70252875 32.1272648 30.13748871 45 35 C45 38.3 45 41.6 45 45 C40.05 45 35.1 45 30 45 C30 40.05 30 35.1 30 30 C25.05 30 20.1 30 15 30 C15 25.05 15 20.1 15 15 C10.05 15 5.1 15 0 15 C0 10.05 0 5.1 0 0 Z " fill="#F0ECEC" transform="translate(75,90)"/>
<path d="M0 0 C4.95 0 9.9 0 15 0 C15.54092609 3.84057526 15.85031796 6.28572769 15 10 C12.76196565 12.57793305 10.33166988 14.51997655 7.640625 16.6171875 C4.7481247 19.22728393 3.43679358 21.60808693 1.6875 25.0625 C0.0703125 27.8671875 0.0703125 27.8671875 -2 30 C-6.68082781 30.98022041 -10.16571966 30.54821736 -15 30 C-15 25.05 -15 20.1 -15 15 C-10.05 15 -5.1 15 0 15 C0 10.05 0 5.1 0 0 Z " fill="#EFEDED" transform="translate(90,15)"/>
<path d="M0 0 C0.99 0 1.98 0 3 0 C3 1.32 3 2.64 3 4 C4.98 4 6.96 4 9 4 C9.33 6.64 9.66 9.28 10 12 C10.268125 11.236875 10.53625 10.47375 10.8125 9.6875 C12.64334086 5.54401806 12.64334086 5.54401806 15 4 C18.9675271 3.495042 21.10654682 3.38145549 24.4375 5.6875 C26 8 26 8 26 13 C22.37 13 18.74 13 15 13 C15.99 14.485 15.99 14.485 17 16 C19.80561762 16.28056176 21.46578263 16.26710868 24 15 C24.33 15.99 24.66 16.98 25 18 C23.02 18.99 23.02 18.99 21 20 C21.99 20 22.98 20 24 20 C24 22.31 24 24.62 24 27 C19.05 27 14.1 27 9 27 C9 24.69 9 22.38 9 20 C7.329375 20.061875 7.329375 20.061875 5.625 20.125 C2 20 2 20 0 18 C-0.1953125 15.3984375 -0.1953125 15.3984375 -0.125 12.375 C-0.10695312 11.37210938 -0.08890625 10.36921875 -0.0703125 9.3359375 C-0.04710937 8.56507813 -0.02390625 7.79421875 0 7 C-1.32 7 -2.64 7 -4 7 C-4 6.01 -4 5.02 -4 4 C-2.68 4 -1.36 4 0 4 C0 2.68 0 1.36 0 0 Z " fill="#EFEFEF" transform="translate(156,138)"/>
<path d="M0 0 C3.48584286 0.03134751 6.09479083 0.60989542 9.25 2.1875 C9.91 1.5275 10.57 0.8675 11.25 0.1875 C14.75 0.0625 14.75 0.0625 18.25 0.1875 C18.91 0.1875 19.57 0.1875 20.25 0.1875 C21.24 0.1875 22.23 0.1875 23.25 0.1875 C23.25 5.1375 23.25 10.0875 23.25 15.1875 C13.36839323 16.75409619 13.36839323 16.75409619 10.18359375 15.140625 C8.5625 13.75 8.5625 13.75 6.25 11.1875 C5.59 12.8375 4.93 14.4875 4.25 16.1875 C0.92919334 16.41918419 -1.43081981 16.30807918 -4.5625 15.125 C-6.75 13.1875 -6.75 13.1875 -7.75 9.8125 C-7.75 3.94796892 -5.90954133 0.29547707 0 0 Z " fill="#1C1819" transform="translate(203.75,141.8125)"/>
<path d="M0 0 C4.95 0 9.9 0 15 0 C15 4.95 15 9.9 15 15 C19.95 15 24.9 15 30 15 C30 19.95 30 24.9 30 30 C24.42891879 30.95752958 24.42891879 30.95752958 21 30 C18.59452327 27.51389276 16.85427558 24.87135029 14.9765625 21.96875 C11.59531105 16.89019051 7.49719974 12.24859987 2 9.5 C0 8 0 8 -0.30078125 6.05078125 C-0.31135397 4.03139143 -0.16497276 2.01266763 0 0 Z " fill="#EFEEEE" transform="translate(240,15)"/>
<path d="M0 0 C4.95 0 9.9 0 15 0 C15.33 4.29 15.66 8.58 16 13 C15.01902344 13.20753906 14.03804687 13.41507813 13.02734375 13.62890625 C2.97343254 15.88150412 -5.83845475 19.31392226 -15 24 C-15 21.03 -15 18.06 -15 15 C-10.05 15 -5.1 15 0 15 C0 10.05 0 5.1 0 0 Z " fill="#FEFDFC" transform="translate(120,0)"/>
<path d="M0 0 C0.70125 0.00515625 1.4025 0.0103125 2.125 0.015625 C2.82625 0.01046875 3.5275 0.0053125 4.25 0 C6.125 0.265625 6.125 0.265625 8.125 2.265625 C7.795 2.925625 7.465 3.585625 7.125 4.265625 C4.485 3.935625 1.845 3.605625 -0.875 3.265625 C-0.875 4.255625 -0.875 5.245625 -0.875 6.265625 C0.053125 6.20375 0.98125 6.141875 1.9375 6.078125 C5.125 6.265625 5.125 6.265625 7.0625 7.453125 C8.125 9.265625 8.125 9.265625 8 11.828125 C7.125 14.265625 7.125 14.265625 4.125 16.265625 C5.445 15.935625 6.765 15.605625 8.125 15.265625 C8.125 17.905625 8.125 20.545625 8.125 23.265625 C3.175 23.265625 -1.775 23.265625 -6.875 23.265625 C-6.875 18.315625 -6.875 13.365625 -6.875 8.265625 C-5.555 8.265625 -4.235 8.265625 -2.875 8.265625 C-3.535 7.605625 -4.195 6.945625 -4.875 6.265625 C-4.46424714 2.97960211 -3.612595 0.51178429 0 0 Z " fill="#EFEFEF" transform="translate(141.875,141.734375)"/>
<path d="M0 0 C0.99 0 1.98 0 3 0 C3 6.93 3 13.86 3 21 C1.35 21 -0.3 21 -2 21 C-2.33 21.33 -2.66 21.66 -3 22 C-5.25 22.4375 -5.25 22.4375 -8 22 C-10.35737558 19.8988609 -11.65374095 18.72825949 -13 16 C-13 12.42896064 -12.66890244 10.15199865 -10.875 7.0625 C-7.93786965 5.39812614 -5.29425701 5.75598096 -2 6 C-1.67 6.33 -1.34 6.66 -1 7 C-0.67 4.69 -0.34 2.38 0 0 Z " fill="#1E1A1B" transform="translate(255,136)"/>
<path d="M0 0 C4.95 0 9.9 0 15 0 C15 4.95 15 9.9 15 15 C9.67743736 16.33064066 5.45112444 15.58404905 0 15 C0 10.05 0 5.1 0 0 Z " fill="#FEFEFE" transform="translate(180,0)"/>
<path d="M0 0 C4.95 0 9.9 0 15 0 C15 4.95 15 9.9 15 15 C10.05 15 5.1 15 0 15 C0 10.05 0 5.1 0 0 Z " fill="#EFEFEF" transform="translate(315,150)"/>
<path d="M0 0 C4.95 0 9.9 0 15 0 C15 4.95 15 9.9 15 15 C10.05 15 5.1 15 0 15 C0 10.05 0 5.1 0 0 Z " fill="#FFFFFF" transform="translate(300,150)"/>
<path d="M0 0 C4.95 0 9.9 0 15 0 C15 4.95 15 9.9 15 15 C10.05 15 5.1 15 0 15 C0 10.05 0 5.1 0 0 Z " fill="#EFEFEF" transform="translate(285,150)"/>
<path d="M0 0 C4.95 0 9.9 0 15 0 C15 4.95 15 9.9 15 15 C10.05 15 5.1 15 0 15 C0 10.05 0 5.1 0 0 Z " fill="#FFFFFF" transform="translate(270,150)"/>
<path d="M0 0 C4.95 0 9.9 0 15 0 C15 4.95 15 9.9 15 15 C10.05 15 5.1 15 0 15 C0 10.05 0 5.1 0 0 Z " fill="#FFFFFF" transform="translate(60,150)"/>
<path d="M0 0 C4.95 0 9.9 0 15 0 C15 4.95 15 9.9 15 15 C10.05 15 5.1 15 0 15 C0 10.05 0 5.1 0 0 Z " fill="#EFEFEF" transform="translate(45,150)"/>
<path d="M0 0 C4.95 0 9.9 0 15 0 C15 4.95 15 9.9 15 15 C10.05 15 5.1 15 0 15 C0 10.05 0 5.1 0 0 Z " fill="#FFFFFF" transform="translate(30,150)"/>
<path d="M0 0 C4.95 0 9.9 0 15 0 C15 4.95 15 9.9 15 15 C10.05 15 5.1 15 0 15 C0 10.05 0 5.1 0 0 Z " fill="#EFEFEF" transform="translate(15,150)"/>
<path d="M0 0 C4.95 0 9.9 0 15 0 C15 4.95 15 9.9 15 15 C10.05 15 5.1 15 0 15 C0 10.05 0 5.1 0 0 Z " fill="#EFEFEF" transform="translate(330,135)"/>
<path d="M0 0 C4.95 0 9.9 0 15 0 C15 4.95 15 9.9 15 15 C10.05 15 5.1 15 0 15 C0 10.05 0 5.1 0 0 Z " fill="#FFFFFF" transform="translate(315,135)"/>
<path d="M0 0 C4.95 0 9.9 0 15 0 C15 4.95 15 9.9 15 15 C10.05 15 5.1 15 0 15 C0 10.05 0 5.1 0 0 Z " fill="#EFEFEF" transform="translate(300,135)"/>
<path d="M0 0 C4.95 0 9.9 0 15 0 C15 4.95 15 9.9 15 15 C10.05 15 5.1 15 0 15 C0 10.05 0 5.1 0 0 Z " fill="#FFFFFF" transform="translate(285,135)"/>
<path d="M0 0 C4.95 0 9.9 0 15 0 C15 4.95 15 9.9 15 15 C10.05 15 5.1 15 0 15 C0 10.05 0 5.1 0 0 Z " fill="#EFEFEF" transform="translate(60,135)"/>
<path d="M0 0 C4.95 0 9.9 0 15 0 C15 4.95 15 9.9 15 15 C10.05 15 5.1 15 0 15 C0 10.05 0 5.1 0 0 Z " fill="#FFFFFF" transform="translate(45,135)"/>
<path d="M0 0 C4.95 0 9.9 0 15 0 C15 4.95 15 9.9 15 15 C10.05 15 5.1 15 0 15 C0 10.05 0 5.1 0 0 Z " fill="#EFEFEF" transform="translate(30,135)"/>
<path d="M0 0 C4.95 0 9.9 0 15 0 C15 4.95 15 9.9 15 15 C10.05 15 5.1 15 0 15 C0 10.05 0 5.1 0 0 Z " fill="#FFFFFF" transform="translate(15,135)"/>
<path d="M0 0 C4.95 0 9.9 0 15 0 C15 4.95 15 9.9 15 15 C10.05 15 5.1 15 0 15 C0 10.05 0 5.1 0 0 Z " fill="#EFEFEF" transform="translate(0,135)"/>
<path d="M0 0 C4.95 0 9.9 0 15 0 C15 4.95 15 9.9 15 15 C10.05 15 5.1 15 0 15 C0 10.05 0 5.1 0 0 Z " fill="#EFEFEF" transform="translate(315,120)"/>
<path d="M0 0 C4.95 0 9.9 0 15 0 C15 4.95 15 9.9 15 15 C10.05 15 5.1 15 0 15 C0 10.05 0 5.1 0 0 Z " fill="#FFFFFF" transform="translate(300,120)"/>
<path d="M0 0 C4.95 0 9.9 0 15 0 C15 4.95 15 9.9 15 15 C10.05 15 5.1 15 0 15 C0 10.05 0 5.1 0 0 Z " fill="#EFEFEF" transform="translate(285,120)"/>
<path d="M0 0 C4.95 0 9.9 0 15 0 C15 4.95 15 9.9 15 15 C10.05 15 5.1 15 0 15 C0 10.05 0 5.1 0 0 Z " fill="#FFFFFF" transform="translate(270,120)"/>
<path d="M0 0 C4.95 0 9.9 0 15 0 C15 4.95 15 9.9 15 15 C10.05 15 5.1 15 0 15 C0 10.05 0 5.1 0 0 Z " fill="#FFFFFF" transform="translate(240,120)"/>
<path d="M0 0 C4.95 0 9.9 0 15 0 C15 4.95 15 9.9 15 15 C10.05 15 5.1 15 0 15 C0 10.05 0 5.1 0 0 Z " fill="#FFFFFF" transform="translate(90,120)"/>
<path d="M0 0 C4.95 0 9.9 0 15 0 C15 4.95 15 9.9 15 15 C10.05 15 5.1 15 0 15 C0 10.05 0 5.1 0 0 Z " fill="#EFEFEF" transform="translate(75,120)"/>
<path d="M0 0 C4.95 0 9.9 0 15 0 C15 4.95 15 9.9 15 15 C10.05 15 5.1 15 0 15 C0 10.05 0 5.1 0 0 Z " fill="#FFFFFF" transform="translate(60,120)"/>
<path d="M0 0 C4.95 0 9.9 0 15 0 C15 4.95 15 9.9 15 15 C10.05 15 5.1 15 0 15 C0 10.05 0 5.1 0 0 Z " fill="#EFEFEF" transform="translate(45,120)"/>
<path d="M0 0 C4.95 0 9.9 0 15 0 C15 4.95 15 9.9 15 15 C10.05 15 5.1 15 0 15 C0 10.05 0 5.1 0 0 Z " fill="#FFFFFF" transform="translate(30,120)"/>
<path d="M0 0 C4.95 0 9.9 0 15 0 C15 4.95 15 9.9 15 15 C10.05 15 5.1 15 0 15 C0 10.05 0 5.1 0 0 Z " fill="#EFEFEF" transform="translate(15,120)"/>
<path d="M0 0 C4.95 0 9.9 0 15 0 C15 4.95 15 9.9 15 15 C10.05 15 5.1 15 0 15 C0 10.05 0 5.1 0 0 Z " fill="#FFFFFF" transform="translate(0,120)"/>
<path d="M0 0 C4.95 0 9.9 0 15 0 C15 4.95 15 9.9 15 15 C10.05 15 5.1 15 0 15 C0 10.05 0 5.1 0 0 Z " fill="#EFEFEF" transform="translate(330,105)"/>
<path d="M0 0 C4.95 0 9.9 0 15 0 C15 4.95 15 9.9 15 15 C10.05 15 5.1 15 0 15 C0 10.05 0 5.1 0 0 Z " fill="#FFFFFF" transform="translate(315,105)"/>
<path d="M0 0 C4.95 0 9.9 0 15 0 C15 4.95 15 9.9 15 15 C10.05 15 5.1 15 0 15 C0 10.05 0 5.1 0 0 Z " fill="#EFEFEF" transform="translate(300,105)"/>
<path d="M0 0 C4.95 0 9.9 0 15 0 C15 4.95 15 9.9 15 15 C10.05 15 5.1 15 0 15 C0 10.05 0 5.1 0 0 Z " fill="#FFFFFF" transform="translate(285,105)"/>
<path d="M0 0 C4.95 0 9.9 0 15 0 C15 4.95 15 9.9 15 15 C10.05 15 5.1 15 0 15 C0 10.05 0 5.1 0 0 Z " fill="#EFEFEF" transform="translate(270,105)"/>
<path d="M0 0 C4.95 0 9.9 0 15 0 C15 4.95 15 9.9 15 15 C10.05 15 5.1 15 0 15 C0 10.05 0 5.1 0 0 Z " fill="#FFFFFF" transform="translate(75,105)"/>
<path d="M0 0 C4.95 0 9.9 0 15 0 C15 4.95 15 9.9 15 15 C10.05 15 5.1 15 0 15 C0 10.05 0 5.1 0 0 Z " fill="#EFEFEF" transform="translate(60,105)"/>
<path d="M0 0 C4.95 0 9.9 0 15 0 C15 4.95 15 9.9 15 15 C10.05 15 5.1 15 0 15 C0 10.05 0 5.1 0 0 Z " fill="#FFFFFF" transform="translate(45,105)"/>
<path d="M0 0 C4.95 0 9.9 0 15 0 C15 4.95 15 9.9 15 15 C10.05 15 5.1 15 0 15 C0 10.05 0 5.1 0 0 Z " fill="#EFEFEF" transform="translate(30,105)"/>
<path d="M0 0 C4.95 0 9.9 0 15 0 C15 4.95 15 9.9 15 15 C10.05 15 5.1 15 0 15 C0 10.05 0 5.1 0 0 Z " fill="#FFFFFF" transform="translate(15,105)"/>
<path d="M0 0 C4.95 0 9.9 0 15 0 C15 4.95 15 9.9 15 15 C10.05 15 5.1 15 0 15 C0 10.05 0 5.1 0 0 Z " fill="#EFEFEF" transform="translate(0,105)"/>
<path d="M0 0 C4.95 0 9.9 0 15 0 C15 4.95 15 9.9 15 15 C10.05 15 5.1 15 0 15 C0 10.05 0 5.1 0 0 Z " fill="#EFEFEF" transform="translate(315,90)"/>
<path d="M0 0 C4.95 0 9.9 0 15 0 C15 4.95 15 9.9 15 15 C10.05 15 5.1 15 0 15 C0 10.05 0 5.1 0 0 Z " fill="#FFFFFF" transform="translate(300,90)"/>
<path d="M0 0 C4.95 0 9.9 0 15 0 C15 4.95 15 9.9 15 15 C10.05 15 5.1 15 0 15 C0 10.05 0 5.1 0 0 Z " fill="#EFEFEF" transform="translate(285,90)"/>
<path d="M0 0 C4.95 0 9.9 0 15 0 C15 4.95 15 9.9 15 15 C10.05 15 5.1 15 0 15 C0 10.05 0 5.1 0 0 Z " fill="#FFFFFF" transform="translate(270,90)"/>
<path d="M0 0 C4.95 0 9.9 0 15 0 C15 4.95 15 9.9 15 15 C10.05 15 5.1 15 0 15 C0 10.05 0 5.1 0 0 Z " fill="#FFFFFF" transform="translate(60,90)"/>
<path d="M0 0 C4.95 0 9.9 0 15 0 C15 4.95 15 9.9 15 15 C10.05 15 5.1 15 0 15 C0 10.05 0 5.1 0 0 Z " fill="#EFEFEF" transform="translate(45,90)"/>
<path d="M0 0 C4.95 0 9.9 0 15 0 C15 4.95 15 9.9 15 15 C10.05 15 5.1 15 0 15 C0 10.05 0 5.1 0 0 Z " fill="#FFFFFF" transform="translate(30,90)"/>
<path d="M0 0 C4.95 0 9.9 0 15 0 C15 4.95 15 9.9 15 15 C10.05 15 5.1 15 0 15 C0 10.05 0 5.1 0 0 Z " fill="#EFEFEF" transform="translate(15,90)"/>
<path d="M0 0 C4.95 0 9.9 0 15 0 C15 4.95 15 9.9 15 15 C10.05 15 5.1 15 0 15 C0 10.05 0 5.1 0 0 Z " fill="#FFFFFF" transform="translate(0,90)"/>
<path d="M0 0 C4.95 0 9.9 0 15 0 C15 4.95 15 9.9 15 15 C10.05 15 5.1 15 0 15 C0 10.05 0 5.1 0 0 Z " fill="#EFEFEF" transform="translate(330,75)"/>
<path d="M0 0 C4.95 0 9.9 0 15 0 C15 4.95 15 9.9 15 15 C10.05 15 5.1 15 0 15 C0 10.05 0 5.1 0 0 Z " fill="#FFFFFF" transform="translate(315,75)"/>
<path d="M0 0 C4.95 0 9.9 0 15 0 C15 4.95 15 9.9 15 15 C10.05 15 5.1 15 0 15 C0 10.05 0 5.1 0 0 Z " fill="#EFEFEF" transform="translate(300,75)"/>
<path d="M0 0 C4.95 0 9.9 0 15 0 C15 4.95 15 9.9 15 15 C10.05 15 5.1 15 0 15 C0 10.05 0 5.1 0 0 Z " fill="#FFFFFF" transform="translate(285,75)"/>
<path d="M0 0 C4.95 0 9.9 0 15 0 C15 4.95 15 9.9 15 15 C10.05 15 5.1 15 0 15 C0 10.05 0 5.1 0 0 Z " fill="#EFEFEF" transform="translate(270,75)"/>
<path d="M0 0 C4.95 0 9.9 0 15 0 C15 4.95 15 9.9 15 15 C10.05 15 5.1 15 0 15 C0 10.05 0 5.1 0 0 Z " fill="#EFEFEF" transform="translate(60,75)"/>
<path d="M0 0 C4.95 0 9.9 0 15 0 C15 4.95 15 9.9 15 15 C10.05 15 5.1 15 0 15 C0 10.05 0 5.1 0 0 Z " fill="#FFFFFF" transform="translate(45,75)"/>
<path d="M0 0 C4.95 0 9.9 0 15 0 C15 4.95 15 9.9 15 15 C10.05 15 5.1 15 0 15 C0 10.05 0 5.1 0 0 Z " fill="#EFEFEF" transform="translate(30,75)"/>
<path d="M0 0 C4.95 0 9.9 0 15 0 C15 4.95 15 9.9 15 15 C10.05 15 5.1 15 0 15 C0 10.05 0 5.1 0 0 Z " fill="#FFFFFF" transform="translate(15,75)"/>
<path d="M0 0 C4.95 0 9.9 0 15 0 C15 4.95 15 9.9 15 15 C10.05 15 5.1 15 0 15 C0 10.05 0 5.1 0 0 Z " fill="#EFEFEF" transform="translate(0,75)"/>
<path d="M0 0 C4.95 0 9.9 0 15 0 C15 4.95 15 9.9 15 15 C10.05 15 5.1 15 0 15 C0 10.05 0 5.1 0 0 Z " fill="#EFEFEF" transform="translate(315,60)"/>
<path d="M0 0 C4.95 0 9.9 0 15 0 C15 4.95 15 9.9 15 15 C10.05 15 5.1 15 0 15 C0 10.05 0 5.1 0 0 Z " fill="#FFFFFF" transform="translate(300,60)"/>
<path d="M0 0 C4.95 0 9.9 0 15 0 C15 4.95 15 9.9 15 15 C10.05 15 5.1 15 0 15 C0 10.05 0 5.1 0 0 Z " fill="#EFEFEF" transform="translate(285,60)"/>
<path d="M0 0 C4.95 0 9.9 0 15 0 C15 4.95 15 9.9 15 15 C10.05 15 5.1 15 0 15 C0 10.05 0 5.1 0 0 Z " fill="#FFFFFF" transform="translate(270,60)"/>
<path d="M0 0 C4.95 0 9.9 0 15 0 C15 4.95 15 9.9 15 15 C10.05 15 5.1 15 0 15 C0 10.05 0 5.1 0 0 Z " fill="#FFFFFF" transform="translate(60,60)"/>
<path d="M0 0 C4.95 0 9.9 0 15 0 C15 4.95 15 9.9 15 15 C10.05 15 5.1 15 0 15 C0 10.05 0 5.1 0 0 Z " fill="#EFEFEF" transform="translate(45,60)"/>
<path d="M0 0 C4.95 0 9.9 0 15 0 C15 4.95 15 9.9 15 15 C10.05 15 5.1 15 0 15 C0 10.05 0 5.1 0 0 Z " fill="#FFFFFF" transform="translate(30,60)"/>
<path d="M0 0 C4.95 0 9.9 0 15 0 C15 4.95 15 9.9 15 15 C10.05 15 5.1 15 0 15 C0 10.05 0 5.1 0 0 Z " fill="#EFEFEF" transform="translate(15,60)"/>
<path d="M0 0 C4.95 0 9.9 0 15 0 C15 4.95 15 9.9 15 15 C10.05 15 5.1 15 0 15 C0 10.05 0 5.1 0 0 Z " fill="#FFFFFF" transform="translate(0,60)"/>
<path d="M0 0 C4.95 0 9.9 0 15 0 C15 4.95 15 9.9 15 15 C10.05 15 5.1 15 0 15 C0 10.05 0 5.1 0 0 Z " fill="#EFEFEF" transform="translate(330,45)"/>
<path d="M0 0 C4.95 0 9.9 0 15 0 C15 4.95 15 9.9 15 15 C10.05 15 5.1 15 0 15 C0 10.05 0 5.1 0 0 Z " fill="#FFFFFF" transform="translate(315,45)"/>
<path d="M0 0 C4.95 0 9.9 0 15 0 C15 4.95 15 9.9 15 15 C10.05 15 5.1 15 0 15 C0 10.05 0 5.1 0 0 Z " fill="#EFEFEF" transform="translate(300,45)"/>
<path d="M0 0 C4.95 0 9.9 0 15 0 C15 4.95 15 9.9 15 15 C10.05 15 5.1 15 0 15 C0 10.05 0 5.1 0 0 Z " fill="#FFFFFF" transform="translate(285,45)"/>
<path d="M0 0 C4.95 0 9.9 0 15 0 C15 4.95 15 9.9 15 15 C10.05 15 5.1 15 0 15 C0 10.05 0 5.1 0 0 Z " fill="#EFEFEF" transform="translate(270,45)"/>
<path d="M0 0 C4.95 0 9.9 0 15 0 C15 4.95 15 9.9 15 15 C10.05 15 5.1 15 0 15 C0 10.05 0 5.1 0 0 Z " fill="#EFEFEF" transform="translate(60,45)"/>
<path d="M0 0 C4.95 0 9.9 0 15 0 C15 4.95 15 9.9 15 15 C10.05 15 5.1 15 0 15 C0 10.05 0 5.1 0 0 Z " fill="#FFFFFF" transform="translate(45,45)"/>
<path d="M0 0 C4.95 0 9.9 0 15 0 C15 4.95 15 9.9 15 15 C10.05 15 5.1 15 0 15 C0 10.05 0 5.1 0 0 Z " fill="#EFEFEF" transform="translate(30,45)"/>
<path d="M0 0 C4.95 0 9.9 0 15 0 C15 4.95 15 9.9 15 15 C10.05 15 5.1 15 0 15 C0 10.05 0 5.1 0 0 Z " fill="#FFFFFF" transform="translate(15,45)"/>
<path d="M0 0 C4.95 0 9.9 0 15 0 C15 4.95 15 9.9 15 15 C10.05 15 5.1 15 0 15 C0 10.05 0 5.1 0 0 Z " fill="#EFEFEF" transform="translate(0,45)"/>
<path d="M0 0 C4.95 0 9.9 0 15 0 C15 4.95 15 9.9 15 15 C10.05 15 5.1 15 0 15 C0 10.05 0 5.1 0 0 Z " fill="#FFFFFF" transform="translate(330,30)"/>
<path d="M0 0 C4.95 0 9.9 0 15 0 C15 4.95 15 9.9 15 15 C10.05 15 5.1 15 0 15 C0 10.05 0 5.1 0 0 Z " fill="#EFEFEF" transform="translate(315,30)"/>
<path d="M0 0 C4.95 0 9.9 0 15 0 C15 4.95 15 9.9 15 15 C10.05 15 5.1 15 0 15 C0 10.05 0 5.1 0 0 Z " fill="#FFFFFF" transform="translate(300,30)"/>
<path d="M0 0 C4.95 0 9.9 0 15 0 C15 4.95 15 9.9 15 15 C10.05 15 5.1 15 0 15 C0 10.05 0 5.1 0 0 Z " fill="#EFEFEF" transform="translate(285,30)"/>
<path d="M0 0 C4.95 0 9.9 0 15 0 C15 4.95 15 9.9 15 15 C10.05 15 5.1 15 0 15 C0 10.05 0 5.1 0 0 Z " fill="#FFFFFF" transform="translate(270,30)"/>
<path d="M0 0 C4.95 0 9.9 0 15 0 C15 4.95 15 9.9 15 15 C10.05 15 5.1 15 0 15 C0 10.05 0 5.1 0 0 Z " fill="#FFFFFF" transform="translate(60,30)"/>
<path d="M0 0 C4.95 0 9.9 0 15 0 C15 4.95 15 9.9 15 15 C10.05 15 5.1 15 0 15 C0 10.05 0 5.1 0 0 Z " fill="#EFEFEF" transform="translate(45,30)"/>
<path d="M0 0 C4.95 0 9.9 0 15 0 C15 4.95 15 9.9 15 15 C10.05 15 5.1 15 0 15 C0 10.05 0 5.1 0 0 Z " fill="#FFFFFF" transform="translate(30,30)"/>
<path d="M0 0 C4.95 0 9.9 0 15 0 C15 4.95 15 9.9 15 15 C10.05 15 5.1 15 0 15 C0 10.05 0 5.1 0 0 Z " fill="#EFEFEF" transform="translate(15,30)"/>
<path d="M0 0 C4.95 0 9.9 0 15 0 C15 4.95 15 9.9 15 15 C10.05 15 5.1 15 0 15 C0 10.05 0 5.1 0 0 Z " fill="#FFFFFF" transform="translate(0,30)"/>
<path d="M0 0 C4.95 0 9.9 0 15 0 C15 4.95 15 9.9 15 15 C10.05 15 5.1 15 0 15 C0 10.05 0 5.1 0 0 Z " fill="#EFEFEF" transform="translate(330,15)"/>
<path d="M0 0 C4.95 0 9.9 0 15 0 C15 4.95 15 9.9 15 15 C10.05 15 5.1 15 0 15 C0 10.05 0 5.1 0 0 Z " fill="#FFFFFF" transform="translate(315,15)"/>
<path d="M0 0 C4.95 0 9.9 0 15 0 C15 4.95 15 9.9 15 15 C10.05 15 5.1 15 0 15 C0 10.05 0 5.1 0 0 Z " fill="#EFEFEF" transform="translate(300,15)"/>
<path d="M0 0 C4.95 0 9.9 0 15 0 C15 4.95 15 9.9 15 15 C10.05 15 5.1 15 0 15 C0 10.05 0 5.1 0 0 Z " fill="#FFFFFF" transform="translate(285,15)"/>
<path d="M0 0 C4.95 0 9.9 0 15 0 C15 4.95 15 9.9 15 15 C10.05 15 5.1 15 0 15 C0 10.05 0 5.1 0 0 Z " fill="#EFEFEF" transform="translate(270,15)"/>
<path d="M0 0 C4.95 0 9.9 0 15 0 C15 4.95 15 9.9 15 15 C10.05 15 5.1 15 0 15 C0 10.05 0 5.1 0 0 Z " fill="#FFFFFF" transform="translate(255,15)"/>
<path d="M0 0 C4.95 0 9.9 0 15 0 C15 4.95 15 9.9 15 15 C10.05 15 5.1 15 0 15 C0 10.05 0 5.1 0 0 Z " fill="#FFFFFF" transform="translate(75,15)"/>
<path d="M0 0 C4.95 0 9.9 0 15 0 C15 4.95 15 9.9 15 15 C10.05 15 5.1 15 0 15 C0 10.05 0 5.1 0 0 Z " fill="#EFEFEF" transform="translate(60,15)"/>
<path d="M0 0 C4.95 0 9.9 0 15 0 C15 4.95 15 9.9 15 15 C10.05 15 5.1 15 0 15 C0 10.05 0 5.1 0 0 Z " fill="#FFFFFF" transform="translate(45,15)"/>
<path d="M0 0 C4.95 0 9.9 0 15 0 C15 4.95 15 9.9 15 15 C10.05 15 5.1 15 0 15 C0 10.05 0 5.1 0 0 Z " fill="#EFEFEF" transform="translate(30,15)"/>
<path d="M0 0 C4.95 0 9.9 0 15 0 C15 4.95 15 9.9 15 15 C10.05 15 5.1 15 0 15 C0 10.05 0 5.1 0 0 Z " fill="#FFFFFF" transform="translate(15,15)"/>
<path d="M0 0 C4.95 0 9.9 0 15 0 C15 4.95 15 9.9 15 15 C10.05 15 5.1 15 0 15 C0 10.05 0 5.1 0 0 Z " fill="#EFEFEF" transform="translate(0,15)"/>
<path d="M0 0 C4.95 0 9.9 0 15 0 C15 4.95 15 9.9 15 15 C10.05 15 5.1 15 0 15 C0 10.05 0 5.1 0 0 Z " fill="#EFEFEF" transform="translate(315,0)"/>
<path d="M0 0 C4.95 0 9.9 0 15 0 C15 4.95 15 9.9 15 15 C10.05 15 5.1 15 0 15 C0 10.05 0 5.1 0 0 Z " fill="#FFFFFF" transform="translate(300,0)"/>
<path d="M0 0 C4.95 0 9.9 0 15 0 C15 4.95 15 9.9 15 15 C10.05 15 5.1 15 0 15 C0 10.05 0 5.1 0 0 Z " fill="#EFEFEF" transform="translate(285,0)"/>
<path d="M0 0 C4.95 0 9.9 0 15 0 C15 4.95 15 9.9 15 15 C10.05 15 5.1 15 0 15 C0 10.05 0 5.1 0 0 Z " fill="#FFFFFF" transform="translate(270,0)"/>
<path d="M0 0 C4.95 0 9.9 0 15 0 C15 4.95 15 9.9 15 15 C10.05 15 5.1 15 0 15 C0 10.05 0 5.1 0 0 Z " fill="#EFEFEF" transform="translate(255,0)"/>
<path d="M0 0 C4.95 0 9.9 0 15 0 C15 4.95 15 9.9 15 15 C10.05 15 5.1 15 0 15 C0 10.05 0 5.1 0 0 Z " fill="#FFFFFF" transform="translate(240,0)"/>
<path d="M0 0 C4.95 0 9.9 0 15 0 C15 4.95 15 9.9 15 15 C10.05 15 5.1 15 0 15 C0 10.05 0 5.1 0 0 Z " fill="#EFEFEF" transform="translate(165,0)"/>
<path d="M0 0 C4.95 0 9.9 0 15 0 C15 4.95 15 9.9 15 15 C10.05 15 5.1 15 0 15 C0 10.05 0 5.1 0 0 Z " fill="#EFEFEF" transform="translate(105,0)"/>
<path d="M0 0 C4.95 0 9.9 0 15 0 C15 4.95 15 9.9 15 15 C10.05 15 5.1 15 0 15 C0 10.05 0 5.1 0 0 Z " fill="#FFFFFF" transform="translate(90,0)"/>
<path d="M0 0 C4.95 0 9.9 0 15 0 C15 4.95 15 9.9 15 15 C10.05 15 5.1 15 0 15 C0 10.05 0 5.1 0 0 Z " fill="#EFEFEF" transform="translate(75,0)"/>
<path d="M0 0 C4.95 0 9.9 0 15 0 C15 4.95 15 9.9 15 15 C10.05 15 5.1 15 0 15 C0 10.05 0 5.1 0 0 Z " fill="#FFFFFF" transform="translate(60,0)"/>
<path d="M0 0 C4.95 0 9.9 0 15 0 C15 4.95 15 9.9 15 15 C10.05 15 5.1 15 0 15 C0 10.05 0 5.1 0 0 Z " fill="#EFEFEF" transform="translate(45,0)"/>
<path d="M0 0 C4.95 0 9.9 0 15 0 C15 4.95 15 9.9 15 15 C10.05 15 5.1 15 0 15 C0 10.05 0 5.1 0 0 Z " fill="#FFFFFF" transform="translate(30,0)"/>
<path d="M0 0 C4.95 0 9.9 0 15 0 C15 4.95 15 9.9 15 15 C10.05 15 5.1 15 0 15 C0 10.05 0 5.1 0 0 Z " fill="#FFFFFF" transform="translate(0,0)"/>
<path d="M0 0 C4.62 0 9.24 0 14 0 C14.33 4.95 14.66 9.9 15 15 C10.05 15 5.1 15 0 15 C0 10.05 0 5.1 0 0 Z " fill="#EFEFEF" transform="translate(75,150)"/>
<path d="M0 0 C4.95 0 9.9 0 15 0 C15 3.96 15 7.92 15 12 C16.32 12.66 17.64 13.32 19 14 C9.595 14.495 9.595 14.495 0 15 C0 10.05 0 5.1 0 0 Z " fill="#EFEDEC" transform="translate(195,0)"/>
<path d="M0 0 C1.65 0.33 3.3 0.66 5 1 C5 4.96 5 8.92 5 13 C6.65 13 8.3 13 10 13 C10 11.35 10 9.7 10 8 C13.875 9.75 13.875 9.75 15 12 C14.83219837 14.69565202 14.38844355 17.32405554 14 20 C9.05 20 4.1 20 -1 20 C-1 17.69 -1 15.38 -1 13 C-2.32 12.67 -3.64 12.34 -5 12 C-4.01 12 -3.02 12 -2 12 C-2.02320312 11.30132812 -2.04640625 10.60265625 -2.0703125 9.8828125 C-2.08835937 8.97273437 -2.10640625 8.06265625 -2.125 7.125 C-2.14820312 6.22007812 -2.17140625 5.31515625 -2.1953125 4.3828125 C-2 2 -2 2 0 0 Z " fill="#EBEBEB" transform="translate(106,145)"/>
<path d="M0 0 C4.95 0 9.9 0 15 0 C15 2.97 15 5.94 15 9 C14.34 8.67 13.68 8.34 13 8 C9.54199641 7.58326793 9.54199641 7.58326793 6 8 C4.15684329 9.9004467 4.15684329 9.9004467 3 12 C2.34 12 1.68 12 1 12 C0.67 12.99 0.34 13.98 0 15 C0 13.35 0 11.7 0 10 C-1.32 10.33 -2.64 10.66 -4 11 C-4.33 14.96 -4.66 18.92 -5 23 C-6.32 22.67 -7.64 22.34 -9 22 C-9 17.05 -9 12.1 -9 7 C-4.545 6.505 -4.545 6.505 0 6 C0 4.02 0 2.04 0 0 Z " fill="#EAE9EA" transform="translate(240,135)"/>
<path d="M0 0 C4.95 0 9.9 0 15 0 C15 4.95 15 9.9 15 15 C13.288125 14.855625 11.57625 14.71125 9.8125 14.5625 C8.36810547 14.44068359 8.36810547 14.44068359 6.89453125 14.31640625 C4.24248442 14.02650639 1.61603677 13.52320735 -1 13 C-0.67 8.71 -0.34 4.42 0 0 Z " fill="#FEFEFE" transform="translate(210,0)"/>
<path d="M0 0 C0 4.95 0 9.9 0 15 C-9.03225806 16.44516129 -9.03225806 16.44516129 -13.125 14.5625 C-15.37946875 11.4813927 -15.69225298 9.65589515 -15.3984375 5.90625 C-15 4 -15 4 -13.6875 1.5 C-9.26196125 -0.97006814 -5.00172975 -0.23817761 0 0 Z " fill="#1D191A" transform="translate(133,142)"/>
<path d="M0 0 C2.10546875 0.23046875 2.10546875 0.23046875 6.10546875 2.23046875 C6.10546875 5.20046875 6.10546875 8.17046875 6.10546875 11.23046875 C5.44546875 11.23046875 4.78546875 11.23046875 4.10546875 11.23046875 C3.44546875 12.88046875 2.78546875 14.53046875 2.10546875 16.23046875 C-1.21533791 16.46215294 -3.57535106 16.35104793 -6.70703125 15.16796875 C-8.89453125 13.23046875 -8.89453125 13.23046875 -9.89453125 9.85546875 C-9.89453125 2.30908898 -6.94412766 0.1433122 0 0 Z " fill="#F0EFF0" transform="translate(205.89453125,141.76953125)"/>
<path d="M0 0 C4.95 0 9.9 0 15 0 C15 4.29 15 8.58 15 13 C11.30786078 13.9230348 8.51850046 14.10346196 4.75 14.0625 C3.67234375 14.05347656 2.5946875 14.04445313 1.484375 14.03515625 C0.66453125 14.02355469 -0.1553125 14.01195312 -1 14 C-0.67 13.34 -0.34 12.68 0 12 C0.07065617 9.95944995 0.08421976 7.91665743 0.0625 5.875 C0.041875 3.93625 0.02125 1.9975 0 0 Z " fill="#EFEBEB" transform="translate(135,0)"/>
<path d="M0 0 C4.95 0 9.9 0 15 0 C15 2.97 15 5.94 15 9 C13.35 9.66 11.7 10.32 10 11 C9.67 14.63 9.34 18.26 9 22 C7.68 22 6.36 22 5 22 C4.67 19.69 4.34 17.38 4 15 C3.67 15 3.34 15 3 15 C2.690625 14.030625 2.38125 13.06125 2.0625 12.0625 C1.30476658 9.15934208 1.30476658 9.15934208 0 8 C-0.14115161 5.32941149 -0.04247107 2.67567762 0 0 Z " fill="#EFEFEF" transform="translate(180,135)"/>
<path d="M0 0 C3.63 0 7.26 0 11 0 C11 4.95 11 9.9 11 15 C6.05 15 1.1 15 -4 15 C-4 12.36 -4 9.72 -4 7 C-3.01 6.67 -2.02 6.34 -1 6 C-0.67 4.02 -0.34 2.04 0 0 Z " fill="#E9E8E8" transform="translate(259,150)"/>
<path d="M0 0 C4.95 0 9.9 0 15 0 C15 4.95 15 9.9 15 15 C11.37 15 7.74 15 4 15 C4 16.98 4 18.96 4 21 C3.67 21 3.34 21 3 21 C3 14.4 3 7.8 3 1 C2.01 0.67 1.02 0.34 0 0 Z " fill="#FFFFFF" transform="translate(255,135)"/>
<path d="M0 0 C1.588125 -0.020625 3.17625 -0.04125 4.8125 -0.0625 C5.70582031 -0.07410156 6.59914063 -0.08570313 7.51953125 -0.09765625 C10 0 10 0 13 1 C13.66 0.67 14.32 0.34 15 0 C20.30863536 -0.45179875 20.30863536 -0.45179875 22.6796875 1.09765625 C24.6498936 3.93638516 24.28865242 6.28203517 24.1875 9.6875 C24.16042969 10.86699219 24.13335937 12.04648438 24.10546875 13.26171875 C24.07066406 14.16535156 24.03585938 15.06898438 24 16 C22.68 16 21.36 16 20 16 C19.67 12.04 19.34 8.08 19 4 C17.35 4.33 15.7 4.66 14 5 C13.67 8.3 13.34 11.6 13 15 C12.01 15 11.02 15 10 15 C9.67 11.04 9.34 7.08 9 3 C7.35 3.33 5.7 3.66 4 4 C3.67 7.63 3.34 11.26 3 15 C2.01 15 1.02 15 0 15 C0 10.05 0 5.1 0 0 Z " fill="#161314" transform="translate(91,142)"/>
<path d="M0 0 C1.32 0 2.64 0 4 0 C4 6.6 4 13.2 4 20 C-0.95 20 -5.9 20 -11 20 C-11 18.02 -11 16.04 -11 14 C-11.33 13.34 -11.66 12.68 -12 12 C-11.01 12 -10.02 12 -9 12 C-9 9.36 -9 6.72 -9 4 C-8.01 4.33 -7.02 4.66 -6 5 C-5.67 7.64 -5.34 10.28 -5 13 C-3.68 13.33 -2.36 13.66 -1 14 C-1.01160156 13.07316406 -1.02320313 12.14632812 -1.03515625 11.19140625 C-1.04417969 9.99386719 -1.05320313 8.79632813 -1.0625 7.5625 C-1.07410156 6.36753906 -1.08570313 5.17257813 -1.09765625 3.94140625 C-1 1 -1 1 0 0 Z " fill="#EBEBEB" transform="translate(236,145)"/>
<path d="M0 0 C4.95 0 9.9 0 15 0 C15 1.98 15 3.96 15 6 C11.47051709 7.66670026 9.71727674 8.13583456 6 7 C6.08679142 9.46008778 6.19360955 11.91643517 6.3125 14.375 C6.33505859 15.07367188 6.35761719 15.77234375 6.38085938 16.4921875 C6.46984296 18.77288941 6.46984296 18.77288941 7 22 C7.99 22.66 8.98 23.32 10 24 C5.25 23.125 5.25 23.125 3 22 C2.68758629 19.45058627 2.48696579 16.99638487 2.375 14.4375 C2.33632812 13.72658203 2.29765625 13.01566406 2.2578125 12.28320312 C2.16328217 10.52257575 2.08054183 8.76132272 2 7 C1.01 7 0.02 7 -1 7 C-1.33 7.66 -1.66 8.32 -2 9 C-3.65 7.68 -5.3 6.36 -7 5 C-4.69 5.33 -2.38 5.66 0 6 C0 4.02 0 2.04 0 0 Z " fill="#FCFCFC" transform="translate(225,135)"/>
<path d="M0 0 C2.475 0.99 2.475 0.99 5 2 C6.93487916 2.71546139 8.87241927 3.423766 10.8125 4.125 C11.78832031 4.47820312 12.76414063 4.83140625 13.76953125 5.1953125 C14.87361328 5.59363281 14.87361328 5.59363281 16 6 C15.67 8.64 15.34 11.28 15 14 C10.05 14 5.1 14 0 14 C0 9.38 0 4.76 0 0 Z " fill="#FEFEFE" transform="translate(180,121)"/>
<path d="M0 0 C2.4375 1.6875 2.4375 1.6875 4 4 C4 5.65 4 7.3 4 9 C0.37 9 -3.26 9 -7 9 C-6.01 10.485 -6.01 10.485 -5 12 C-2.19438238 12.28056176 -0.53421737 12.26710868 2 11 C2.33 11.99 2.66 12.98 3 14 C0.24832603 15.8711383 -1.16177901 15.99432354 -4.5625 15.875 C-8 15 -8 15 -9.9375 13.375 C-11.43699866 10.02317947 -11.45377473 7.63019782 -11 4 C-8.11188513 -0.5054592 -5.11821063 -0.73117295 0 0 Z " fill="#272425" transform="translate(178,142)"/>
<path d="M0 0 C0 3.96 0 7.92 0 12 C-4.95 12 -9.9 12 -15 12 C-15 10.02 -15 8.04 -15 6 C-15.99 5.67 -16.98 5.34 -18 5 C-15.56427941 4.16112944 -13.12666783 3.32873471 -10.6875 2.5 C-9.65206055 2.14228516 -9.65206055 2.14228516 -8.59570312 1.77734375 C-5.61068511 0.76791737 -3.17341086 0 0 0 Z " fill="#FEFBFA" transform="translate(165,123)"/>
<path d="M0 0 C2.31 0 4.62 0 7 0 C7 4.95 7 9.9 7 15 C-0.875 17.25 -0.875 17.25 -7 15 C-6.57847656 14.25234375 -6.15695312 13.5046875 -5.72265625 12.734375 C-5.17480469 11.74953125 -4.62695312 10.7646875 -4.0625 9.75 C-3.51722656 8.77546875 -2.97195313 7.8009375 -2.41015625 6.796875 C-1.23389165 4.46389591 -0.47898309 2.54649238 0 0 Z " fill="#EFEAE6" transform="translate(263,90)"/>
<path d="M0 0 C2 2 4 4 6 6 C7.91424457 5.8981629 7.91424457 5.8981629 10.0625 5.5625 C12.0115625 5.2840625 12.0115625 5.2840625 14 5 C14 5.66 14 6.32 14 7 C14.99 7.33 15.98 7.66 17 8 C16.34 8 15.68 8 15 8 C15 9.98 15 11.96 15 14 C10.05 14 5.1 14 0 14 C0 11.69 0 9.38 0 7 C-0.66 6.67 -1.32 6.34 -2 6 C-1.34 4.02 -0.68 2.04 0 0 Z " fill="#FBFBFB" transform="translate(210,151)"/>
<path d="M0 0 C4.95 0 9.9 0 15 0 C14.67 2.97 14.34 5.94 14 9 C9.59139921 8.47694567 5.36255922 7.87251184 1 7 C1 11.95 1 16.9 1 22 C0.67 22 0.34 22 0 22 C0 14.74 0 7.48 0 0 Z " fill="#E2E1E2" transform="translate(90,135)"/>
<path d="M0 0 C0.45375 0.61875 0.9075 1.2375 1.375 1.875 C5.18535123 4.95957005 9.23390116 5.30873376 14 6 C14 8.31 14 10.62 14 13 C9.05 13 4.1 13 -1 13 C-1.125 2.25 -1.125 2.25 0 0 Z " fill="#EEEEEE" transform="translate(196,152)"/>
<path d="M0 0 C4.95 0 9.9 0 15 0 C14.67 7.59 14.34 15.18 14 23 C12.68 22.67 11.36 22.34 10 22 C10.99 22 11.98 22 13 22 C13 17.05 13 12.1 13 7 C11.35 7.33 9.7 7.66 8 8 C5.28498104 7.85311416 2.6944623 7.41101967 0 7 C0 4.69 0 2.38 0 0 Z " fill="#E3E3E3" transform="translate(120,135)"/>
<path d="M0 0 C4.95 0 9.9 0 15 0 C15 2.64 15 5.28 15 8 C10.05 8 5.1 8 0 8 C0 5.36 0 2.72 0 0 Z " fill="#EFEFEF" transform="translate(330,165)"/>
<path d="M0 0 C4.95 0 9.9 0 15 0 C15 2.64 15 5.28 15 8 C10.05 8 5.1 8 0 8 C0 5.36 0 2.72 0 0 Z " fill="#FFFFFF" transform="translate(315,165)"/>
<path d="M0 0 C4.95 0 9.9 0 15 0 C15 2.64 15 5.28 15 8 C10.05 8 5.1 8 0 8 C0 5.36 0 2.72 0 0 Z " fill="#EFEFEF" transform="translate(300,165)"/>
<path d="M0 0 C4.95 0 9.9 0 15 0 C15 2.64 15 5.28 15 8 C10.05 8 5.1 8 0 8 C0 5.36 0 2.72 0 0 Z " fill="#FFFFFF" transform="translate(285,165)"/>
<path d="M0 0 C4.95 0 9.9 0 15 0 C15 2.64 15 5.28 15 8 C10.05 8 5.1 8 0 8 C0 5.36 0 2.72 0 0 Z " fill="#EFEFEF" transform="translate(270,165)"/>
<path d="M0 0 C4.95 0 9.9 0 15 0 C15 2.64 15 5.28 15 8 C10.05 8 5.1 8 0 8 C0 5.36 0 2.72 0 0 Z " fill="#FFFFFF" transform="translate(255,165)"/>
<path d="M0 0 C4.95 0 9.9 0 15 0 C15 2.64 15 5.28 15 8 C10.05 8 5.1 8 0 8 C0 5.36 0 2.72 0 0 Z " fill="#EFEFEF" transform="translate(240,165)"/>
<path d="M0 0 C4.95 0 9.9 0 15 0 C15 2.64 15 5.28 15 8 C10.05 8 5.1 8 0 8 C0 5.36 0 2.72 0 0 Z " fill="#FFFFFF" transform="translate(225,165)"/>
<path d="M0 0 C4.95 0 9.9 0 15 0 C15 2.64 15 5.28 15 8 C10.05 8 5.1 8 0 8 C0 5.36 0 2.72 0 0 Z " fill="#EFEFEF" transform="translate(210,165)"/>
<path d="M0 0 C4.95 0 9.9 0 15 0 C15 2.64 15 5.28 15 8 C10.05 8 5.1 8 0 8 C0 5.36 0 2.72 0 0 Z " fill="#FFFFFF" transform="translate(195,165)"/>
<path d="M0 0 C4.95 0 9.9 0 15 0 C15 2.64 15 5.28 15 8 C10.05 8 5.1 8 0 8 C0 5.36 0 2.72 0 0 Z " fill="#EFEFEF" transform="translate(180,165)"/>
<path d="M0 0 C4.95 0 9.9 0 15 0 C15 2.64 15 5.28 15 8 C10.05 8 5.1 8 0 8 C0 5.36 0 2.72 0 0 Z " fill="#FFFFFF" transform="translate(165,165)"/>
<path d="M0 0 C4.95 0 9.9 0 15 0 C15 2.64 15 5.28 15 8 C10.05 8 5.1 8 0 8 C0 5.36 0 2.72 0 0 Z " fill="#EFEFEF" transform="translate(150,165)"/>
<path d="M0 0 C4.95 0 9.9 0 15 0 C15 2.64 15 5.28 15 8 C10.05 8 5.1 8 0 8 C0 5.36 0 2.72 0 0 Z " fill="#FFFFFF" transform="translate(135,165)"/>
<path d="M0 0 C4.95 0 9.9 0 15 0 C15 2.64 15 5.28 15 8 C10.05 8 5.1 8 0 8 C0 5.36 0 2.72 0 0 Z " fill="#EFEFEF" transform="translate(120,165)"/>
<path d="M0 0 C4.95 0 9.9 0 15 0 C15 2.64 15 5.28 15 8 C10.05 8 5.1 8 0 8 C0 5.36 0 2.72 0 0 Z " fill="#FFFFFF" transform="translate(105,165)"/>
<path d="M0 0 C4.95 0 9.9 0 15 0 C15 2.64 15 5.28 15 8 C10.05 8 5.1 8 0 8 C0 5.36 0 2.72 0 0 Z " fill="#EFEFEF" transform="translate(90,165)"/>
<path d="M0 0 C4.95 0 9.9 0 15 0 C15 2.64 15 5.28 15 8 C10.05 8 5.1 8 0 8 C0 5.36 0 2.72 0 0 Z " fill="#FFFFFF" transform="translate(75,165)"/>
<path d="M0 0 C4.95 0 9.9 0 15 0 C15 2.64 15 5.28 15 8 C10.05 8 5.1 8 0 8 C0 5.36 0 2.72 0 0 Z " fill="#EFEFEF" transform="translate(60,165)"/>
<path d="M0 0 C4.95 0 9.9 0 15 0 C15 2.64 15 5.28 15 8 C10.05 8 5.1 8 0 8 C0 5.36 0 2.72 0 0 Z " fill="#FFFFFF" transform="translate(45,165)"/>
<path d="M0 0 C4.95 0 9.9 0 15 0 C15 2.64 15 5.28 15 8 C10.05 8 5.1 8 0 8 C0 5.36 0 2.72 0 0 Z " fill="#EFEFEF" transform="translate(30,165)"/>
<path d="M0 0 C4.95 0 9.9 0 15 0 C15 2.64 15 5.28 15 8 C10.05 8 5.1 8 0 8 C0 5.36 0 2.72 0 0 Z " fill="#FFFFFF" transform="translate(15,165)"/>
<path d="M0 0 C4.95 0 9.9 0 15 0 C15 2.64 15 5.28 15 8 C10.05 8 5.1 8 0 8 C0 5.36 0 2.72 0 0 Z " fill="#EFEFEF" transform="translate(0,165)"/>
<path d="M0 0 C0.70125 0.00515625 1.4025 0.0103125 2.125 0.015625 C2.82625 0.01046875 3.5275 0.0053125 4.25 0 C6.125 0.265625 6.125 0.265625 8.125 2.265625 C7.795 2.925625 7.465 3.585625 7.125 4.265625 C4.485 3.935625 1.845 3.605625 -0.875 3.265625 C-0.875 4.255625 -0.875 5.245625 -0.875 6.265625 C0.053125 6.20375 0.98125 6.141875 1.9375 6.078125 C5.125 6.265625 5.125 6.265625 7.0625 7.453125 C8.125 9.265625 8.125 9.265625 8 11.828125 C7.125 14.265625 7.125 14.265625 4.125 16.265625 C-2.20833333 16.59895833 -2.20833333 16.59895833 -4.875 15.265625 C-4.875 14.275625 -4.875 13.285625 -4.875 12.265625 C-1.905 12.265625 1.065 12.265625 4.125 12.265625 C4.455 11.605625 4.785 10.945625 5.125 10.265625 C3.76375 10.1109375 3.76375 10.1109375 2.375 9.953125 C-0.89461575 9.26147551 -2.41217737 8.44427579 -4.875 6.265625 C-4.22256476 3.00344879 -3.71990039 0.52698589 0 0 Z " fill="#252122" transform="translate(141.875,141.734375)"/>
<path d="M0 0 C5.23880078 0.55145271 9.97350697 1.42922093 15 3 C15 4.98 15 6.96 15 9 C10.05 9 5.1 9 0 9 C0 6.03 0 3.06 0 0 Z " fill="#FEFBFA" transform="translate(120,126)"/>
<path d="M0 0 C0.83265381 0.04713135 1.66530762 0.0942627 2.52319336 0.14282227 C3.871875 0.21533203 3.871875 0.21533203 5.24780273 0.28930664 C6.19333008 0.34538086 7.13885742 0.40145508 8.11303711 0.45922852 C9.53712891 0.53753906 9.53712891 0.53753906 10.98999023 0.61743164 C13.34380663 0.74754209 15.6972441 0.88251963 18.05053711 1.02172852 C18.05053711 1.35172852 18.05053711 1.68172852 18.05053711 2.02172852 C16.07053711 2.35172852 14.09053711 2.68172852 12.05053711 3.02172852 C12.05053711 4.67172852 12.05053711 6.32172852 12.05053711 8.02172852 C7.10053711 8.02172852 2.15053711 8.02172852 -2.94946289 8.02172852 C-2.94946289 0.03287441 -2.94946289 0.03287441 0 0 Z " fill="#F0EAE3" transform="translate(197.949462890625,126.978271484375)"/>
<path d="M0 0 C4.95 0 9.9 0 15 0 C15 1.98 15 3.96 15 6 C13.35 6 11.7 6 10 6 C10 6.33 10 6.66 10 7 C9.05125 7.28875 8.1025 7.5775 7.125 7.875 C3.94788422 8.76825109 3.94788422 8.76825109 2 11 C-0.67927341 6.98108988 -0.15601248 4.75838077 0 0 Z " fill="#EDEDED" transform="translate(210,135)"/>
<path d="M0 0 C-0.33 2.31 -0.66 4.62 -1 7 C-5.95 7 -10.9 7 -16 7 C-16.33 5.02 -16.66 3.04 -17 1 C-14.91835982 0.63601378 -12.83459438 0.28416713 -10.75 -0.0625 C-9.00976562 -0.35833984 -9.00976562 -0.35833984 -7.234375 -0.66015625 C-4.37477376 -0.9606216 -2.66674071 -0.9439206 0 0 Z " fill="#FEFEFE" transform="translate(226,128)"/>
<path d="M0 0 C2.10409639 -0.02701408 4.20829178 -0.04640223 6.3125 -0.0625 C7.48425781 -0.07410156 8.65601563 -0.08570312 9.86328125 -0.09765625 C13 0 13 0 16 1 C16 2.98 16 4.96 16 7 C11.05 7 6.1 7 1 7 C0.67 4.69 0.34 2.38 0 0 Z " fill="#F0E4E5" transform="translate(134,128)"/>
<path d="M0 0 C0.99 0 1.98 0 3 0 C3 1.32 3 2.64 3 4 C4.65 4 6.3 4 8 4 C8 4.99 8 5.98 8 7 C6.35 7 4.7 7 3 7 C3.33 9.97 3.66 12.94 4 16 C5.32 16 6.64 16 8 16 C8.33 16.99 8.66 17.98 9 19 C5.625 19.625 5.625 19.625 2 20 C0 18 0 18 -0.1953125 15.3984375 C-0.17210937 14.40070313 -0.14890625 13.40296875 -0.125 12.375 C-0.10695312 11.37210938 -0.08890625 10.36921875 -0.0703125 9.3359375 C-0.04710937 8.56507813 -0.02390625 7.79421875 0 7 C-1.32 7 -2.64 7 -4 7 C-4 6.01 -4 5.02 -4 4 C-2.68 4 -1.36 4 0 4 C0 2.68 0 1.36 0 0 Z " fill="#231F20" transform="translate(156,138)"/>
<path d="M0 0 C2.05078125 0.03255208 4.1015625 0.06510417 6.15234375 0.09765625 C6.48234375 1.41765625 6.81234375 2.73765625 7.15234375 4.09765625 C4.18234375 4.09765625 1.21234375 4.09765625 -1.84765625 4.09765625 C-1.51765625 6.40765625 -1.18765625 8.71765625 -0.84765625 11.09765625 C1.91498664 11.69498444 4.31267144 12.09765625 7.15234375 12.09765625 C6.82234375 13.41765625 6.49234375 14.73765625 6.15234375 16.09765625 C2.83153709 16.32934044 0.47152394 16.21823543 -2.66015625 15.03515625 C-4.84765625 13.09765625 -4.84765625 13.09765625 -5.84765625 9.72265625 C-5.84765625 5.81036418 -4.71166292 0.24903081 0 0 Z " fill="#221E1F" transform="translate(201.84765625,141.90234375)"/>
<path d="M0 0 C0.33 0 0.66 0 1 0 C1 4.29 1 8.58 1 13 C-3.62 13 -8.24 13 -13 13 C-11.33333333 11.33333333 -9.66666667 9.66666667 -8 8 C-7.278125 7.236875 -6.55625 6.47375 -5.8125 5.6875 C-4 4 -4 4 -2 4 C-1.34 2.68 -0.68 1.36 0 0 Z " fill="#EFECEA" transform="translate(254,107)"/>
<path d="M0 0 C2.97 0 5.94 0 9 0 C9 4.95 9 9.9 9 15 C7.68 15 6.36 15 5 15 C3.33333333 10 1.66666667 5 0 0 Z " fill="#FEFEFE" transform="translate(261,45)"/>
<path d="M0 0 C2.31 0 4.62 0 7 0 C6.34 4.95 5.68 9.9 5 15 C3.35 15 1.7 15 0 15 C0 10.05 0 5.1 0 0 Z " fill="#F0F0F0" transform="translate(75,60)"/>
<path d="M0 0 C4.95 0 9.9 0 15 0 C15 1.98 15 3.96 15 6 C11.65626525 5.44271087 8.96687001 4.64826111 6 3 C6 4.32 6 5.64 6 7 C4.02 7 2.04 7 0 7 C0 4.69 0 2.38 0 0 Z " fill="#F3F3F3" transform="translate(150,135)"/>
<path d="M0 0 C3.3 0 6.6 0 10 0 C9.67 0.99 9.34 1.98 9 3 C7.68 3.33 6.36 3.66 5 4 C4.67 7.96 4.34 11.92 4 16 C2.68 15.67 1.36 15.34 0 15 C0 10.05 0 5.1 0 0 Z " fill="#383536" transform="translate(231,142)"/>
<path d="M0 0 C3.3 0 6.6 0 10 0 C9.67 0.99 9.34 1.98 9 3 C7.68 3.33 6.36 3.66 5 4 C4.67 7.63 4.34 11.26 4 15 C2.68 15 1.36 15 0 15 C0 10.05 0 5.1 0 0 Z " fill="#363334" transform="translate(185,142)"/>
<path d="M0 0 C2.5 0.25 2.5 0.25 4.5 2.25 C4.125 5.875 4.125 5.875 3.5 9.25 C0.625 9.875 0.625 9.875 -2.5 10.25 C-4.5 8.25 -4.5 8.25 -4.75 5.25 C-4.43608753 1.48305032 -3.83691092 0.38369109 0 0 Z " fill="#EBEBEB" transform="translate(219.5,144.75)"/>
<path d="M0 0 C2.5 0.25 2.5 0.25 4.5 2.25 C4.86796448 5.12012296 4.87509409 6.65774618 3.3125 9.125 C1.5 10.25 1.5 10.25 -1.125 10 C-3.5 9.25 -3.5 9.25 -4.5 8.25 C-4.6875 5.3125 -4.6875 5.3125 -4.5 2.25 C-2.5 0.25 -2.5 0.25 0 0 Z " fill="#E8E8E8" transform="translate(250.5,144.75)"/>
<path d="M0 0 C2.5 0.25 2.5 0.25 4.5 2.25 C4.75 5.25 4.75 5.25 4.5 8.25 C3.84 8.91 3.18 9.57 2.5 10.25 C-0.79714793 9.92028521 -2.1226839 9.6273161 -4.5 7.25 C-4.75 4.75 -4.75 4.75 -4.5 2.25 C-2.5 0.25 -2.5 0.25 0 0 Z " fill="#EDECEC" transform="translate(125.5,144.75)"/>
<path d="M0 0 C4.45323246 -0.3610729 4.45323246 -0.3610729 6.65625 1.09375 C8.65709853 3.93216303 8.28913696 6.26572244 8.1875 9.6875 C8.16042969 10.86699219 8.13335937 12.04648438 8.10546875 13.26171875 C8.07066406 14.16535156 8.03585938 15.06898438 8 16 C6.68 16 5.36 16 4 16 C3.67 12.04 3.34 8.08 3 4 C1.35 4 -0.3 4 -2 4 C-1.34 2.68 -0.68 1.36 0 0 Z " fill="#343131" transform="translate(107,142)"/>
<path d="M0 0 C4.62 0 9.24 0 14 0 C14 2.31 14 4.62 14 7 C9.38 5.02 4.76 3.04 0 1 C0 0.67 0 0.34 0 0 Z " fill="#FDFDFD" transform="translate(226,15)"/>
<path d="M0 0 C2.475 0.495 2.475 0.495 5 1 C4.67 1.99 4.34 2.98 4 4 C3.77820215 5.89212737 3.59385985 7.78884472 3.4375 9.6875 C3.31181641 11.17830078 3.31181641 11.17830078 3.18359375 12.69921875 C3.12300781 13.45847656 3.06242187 14.21773437 3 15 C2.01 15 1.02 15 0 15 C0 10.05 0 5.1 0 0 Z " fill="#1F1B1C" transform="translate(91,142)"/>
<path d="M0 0 C1.32 0 2.64 0 4 0 C4 4.95 4 9.9 4 15 C3.01 15 2.02 15 1 15 C0.67 10.05 0.34 5.1 0 0 Z " fill="#F0EDEA" transform="translate(266,60)"/>
<path d="M0 0 C5.94 0.99 5.94 0.99 12 2 C11.67 2.99 11.34 3.98 11 5 C8.03 4.67 5.06 4.34 2 4 C2 4.66 2 5.32 2 6 C1.34 6 0.68 6 0 6 C0 4.02 0 2.04 0 0 Z " fill="#ECECEC" transform="translate(135,150)"/>
<path d="M0 0 C0.33 0.66 0.66 1.32 1 2 C4.3 2 7.6 2 11 2 C10.67 3.32 10.34 4.64 10 6 C7.69 6.33 5.38 6.66 3 7 C0 3.375 0 3.375 0 0 Z " fill="#E0DFE0" transform="translate(199,148)"/>
<path d="M0 0 C0.99 0 1.98 0 3 0 C3 4.95 3 9.9 3 15 C2.01 15 1.02 15 0 15 C0 10.05 0 5.1 0 0 Z " fill="#FFFFFF" transform="translate(345,135)"/>
<path d="M0 0 C0.99 0 1.98 0 3 0 C3 4.95 3 9.9 3 15 C2.01 15 1.02 15 0 15 C0 10.05 0 5.1 0 0 Z " fill="#EFEFEF" transform="translate(345,120)"/>
<path d="M0 0 C0.99 0 1.98 0 3 0 C3 4.95 3 9.9 3 15 C2.01 15 1.02 15 0 15 C0 10.05 0 5.1 0 0 Z " fill="#FFFFFF" transform="translate(345,105)"/>
<path d="M0 0 C0.99 0 1.98 0 3 0 C3 4.95 3 9.9 3 15 C2.01 15 1.02 15 0 15 C0 10.05 0 5.1 0 0 Z " fill="#EFEFEF" transform="translate(345,90)"/>
<path d="M0 0 C0.99 0 1.98 0 3 0 C3 4.95 3 9.9 3 15 C2.01 15 1.02 15 0 15 C0 10.05 0 5.1 0 0 Z " fill="#EFEFEF" transform="translate(345,60)"/>
<path d="M0 0 C0.99 0 1.98 0 3 0 C3 4.95 3 9.9 3 15 C2.01 15 1.02 15 0 15 C0 10.05 0 5.1 0 0 Z " fill="#EFEFEF" transform="translate(345,30)"/>
<path d="M0 0 C0.99 0 1.98 0 3 0 C3 4.95 3 9.9 3 15 C2.01 15 1.02 15 0 15 C0 10.05 0 5.1 0 0 Z " fill="#EFEFEF" transform="translate(345,0)"/>
<path d="M0 0 C1.65 0.33 3.3 0.66 5 1 C5 4.96 5 8.92 5 13 C4.67 13 4.34 13 4 13 C4 10.36 4 7.72 4 5 C2.68 5 1.36 5 0 5 C0 7.31 0 9.62 0 12 C-0.33 12 -0.66 12 -1 12 C-1.02687279 10.18757948 -1.04633715 8.37504767 -1.0625 6.5625 C-1.07410156 5.55316406 -1.08570312 4.54382813 -1.09765625 3.50390625 C-1 1 -1 1 0 0 Z " fill="#FDFDFD" transform="translate(106,145)"/>
<path d="M0 0 C1.98 0 3.96 0 6 0 C6 1.98 6 3.96 6 6 C2.65626525 5.44271087 -0.03312999 4.64826111 -3 3 C-3.33 4.32 -3.66 5.64 -4 7 C-4 5.35 -4 3.7 -4 2 C-2.68 2 -1.36 2 0 2 C0 1.34 0 0.68 0 0 Z " fill="#E1E0E1" transform="translate(159,135)"/>
<path d="M0 0 C3.63 0 7.26 0 11 0 C11 0.66 11 1.32 11 2 C7.7 3.32 4.4 4.64 1 6 C0.67 5.67 0.34 5.34 0 5 C0 3.35 0 1.7 0 0 Z " fill="#EFEFEF" transform="translate(180,15)"/>
<path d="M0 0 C2.31 0 4.62 0 7 0 C5.44499019 3.81684226 2.96404505 6.19195732 0 9 C0 6.03 0 3.06 0 0 Z " fill="#FDF8F7" transform="translate(90,30)"/>
<path d="M0 0 C0.33 0.66 0.66 1.32 1 2 C1.66 2 2.32 2 3 2 C2.67 3.65 2.34 5.3 2 7 C-0.97 6.505 -0.97 6.505 -4 6 C-4.33 4.68 -4.66 3.36 -5 2 C-3.35 1.34 -1.7 0.68 0 0 Z " fill="#E9E8E9" transform="translate(194,144)"/>
<path d="M0 0 C1.2065625 0.0309375 1.2065625 0.0309375 2.4375 0.0625 C2.7675 0.7225 3.0975 1.3825 3.4375 2.0625 C3.1075 3.0525 2.7775 4.0425 2.4375 5.0625 C0.1275 5.0625 -2.1825 5.0625 -4.5625 5.0625 C-3.43829114 0.08386076 -3.43829114 0.08386076 0 0 Z " fill="#EEEEEE" transform="translate(250.5625,144.9375)"/>
<path d="M0 0 C1.32 0 2.64 0 4 0 C4 1.65 4 3.3 4 5 C2.68 5 1.36 5 0 5 C0 7.64 0 10.28 0 13 C-0.33 13 -0.66 13 -1 13 C-1.02686553 11.02090602 -1.04633375 9.04171029 -1.0625 7.0625 C-1.07410156 5.96035156 -1.08570313 4.85820312 -1.09765625 3.72265625 C-1 1 -1 1 0 0 Z " fill="#FAFAFA" transform="translate(236,145)"/>
<path d="M0 0 C3.3 0 6.6 0 10 0 C8.515 1.98 8.515 1.98 7 4 C4.3125 4.25 4.3125 4.25 2 4 C1.34 2.68 0.68 1.36 0 0 Z " fill="#E8E7E7" transform="translate(171,151)"/>
<path d="M0 0 C0.33 0 0.66 0 1 0 C1 2.64 1 5.28 1 8 C-0.65 8 -2.3 8 -4 8 C-4.33 6.35 -4.66 4.7 -5 3 C-3.35 3 -1.7 3 0 3 C0 2.01 0 1.02 0 0 Z " fill="#E5E4E4" transform="translate(164,142)"/>
<path d="M0 0 C1.2065625 0.0309375 1.2065625 0.0309375 2.4375 0.0625 C2.7675 1.7125 3.0975 3.3625 3.4375 5.0625 C1.4575 5.0625 -0.5225 5.0625 -2.5625 5.0625 C-3.125 3.125 -3.125 3.125 -3.5625 1.0625 C-2.5625 0.0625 -2.5625 0.0625 0 0 Z " fill="#E7E7E7" transform="translate(97.5625,144.9375)"/>
<path d="M0 0 C0.99 0 1.98 0 3 0 C3 2.64 3 5.28 3 8 C2.01 8 1.02 8 0 8 C0 5.36 0 2.72 0 0 Z " fill="#FFFFFF" transform="translate(345,165)"/>
<path d="M0 0 C1.65 0 3.3 0 5 0 C5.33 0.99 5.66 1.98 6 3 C3.69 3 1.38 3 -1 3 C-0.67 2.01 -0.34 1.02 0 0 Z " fill="#F7F7F7" transform="translate(172,145)"/>
<path d="M0 0 C2.31 0 4.62 0 7 0 C6.67 0.99 6.34 1.98 6 3 C4.35 3.33 2.7 3.66 1 4 C0.67 2.68 0.34 1.36 0 0 Z " fill="#2B2828" transform="translate(188,142)"/>
<path d="M0 0 C-0.33 0.99 -0.66 1.98 -1 3 C-2.98 3 -4.96 3 -7 3 C-7 2.34 -7 1.68 -7 1 C-4.53721199 -0.231394 -2.7204945 -0.07159196 0 0 Z " fill="#DAD9DA" transform="translate(147,152)"/>
<path d="M0 0 C2.31 0 4.62 0 7 0 C7 0.99 7 1.98 7 3 C6.01 3.33 5.02 3.66 4 4 C1 2 1 2 0 0 Z " fill="#F1E9E8" transform="translate(158,15)"/>
<path d="M0 0 C1.32 0.33 2.64 0.66 4 1 C4 2.32 4 3.64 4 5 C2.68 4.67 1.36 4.34 0 4 C0 2.68 0 1.36 0 0 Z " fill="#EBEBEB" transform="translate(150,145)"/>
</svg>
